<?xml version="1.0" encoding="utf-8"?>
<!-- Generator: Adobe Illustrator 16.0.0, SVG Export Plug-In . SVG Version: 6.00 Build 0)  -->
<!DOCTYPE svg PUBLIC "-//W3C//DTD SVG 1.1//EN" "http://www.w3.org/Graphics/SVG/1.1/DTD/svg11.dtd">
<svg version="1.1" id="Layer_1" xmlns="http://www.w3.org/2000/svg" xmlns:xlink="http://www.w3.org/1999/xlink" x="0px" y="0px"
	 width="94px" height="94px" viewBox="0 0 94 94" enable-background="new 0 0 94 94" xml:space="preserve">
<g>
	<g>
		<g>
			<g>
				<path fill="#FFFFFF" d="M20.784,37.238c2.292,0,4.101,0.856,4.101,3.391c0,1.227-0.533,2.276-1.663,2.857
					c1.663,0.291,2.842,1.21,2.842,3.358c0,2.195-1.599,3.713-4.359,3.713h-5.053V37.238H20.784z M19.929,42.453
					c1.308,0,2.018-0.404,2.018-1.518c0-0.953-0.694-1.356-2.018-1.356h-0.242v2.874H19.929z M20.639,48.216
					c1.437,0,2.228-0.436,2.228-1.485c0-1.227-0.791-1.663-2.228-1.663h-0.952v3.148H20.639z"/>
				<path fill="#FFFFFF" d="M36.755,36.996c3.697,0,6.7,3.002,6.7,6.893s-2.874,6.91-6.7,6.91c-3.938,0-6.716-3.019-6.716-6.91
					S33.091,36.996,36.755,36.996z M36.755,47.861c2.422,0,3.423-1.986,3.423-3.972s-1.065-3.971-3.423-3.971
					c-2.341,0-3.438,1.985-3.438,3.971S34.269,47.861,36.755,47.861z"/>
				<path fill="#FFFFFF" d="M54.148,36.996c3.697,0,6.7,3.002,6.7,6.893s-2.874,6.91-6.7,6.91c-3.938,0-6.716-3.019-6.716-6.91
					S50.484,36.996,54.148,36.996z M54.148,47.861c2.422,0,3.423-1.986,3.423-3.972s-1.065-3.971-3.423-3.971
					c-2.341,0-3.438,1.985-3.438,3.971S51.662,47.861,54.148,47.861z"/>
				<path fill="#FFFFFF" d="M73.365,50.557l-4.907-5.65v5.65h-3.035V37.238h3.035v5.441l4.568-5.441h3.681l-5.359,6.312l6.199,7.006
					H73.365z"/>
				<path fill="#FFFFFF" d="M30.294,71.676l-4.907-5.65v5.65h-3.035V58.356h3.035v5.44l4.568-5.44h3.681l-5.359,6.312l6.199,7.007
					H30.294z"/>
				<path fill="#FFFFFF" d="M45.911,61.021h-4.585v2.647h4.391v2.664h-4.391v2.68h4.585v2.664h-7.62V58.356h7.62V61.021z"/>
				<path fill="#FFFFFF" d="M53.923,71.676h-3.035V58.356h3.035l5.295,8.266h0.032v-8.266h3.035v13.319H59.25l-5.295-8.266h-0.032
					V71.676z"/>
				<path fill="#FFFFFF" d="M70.492,71.676h-3.035V58.356h3.035V71.676z"/>
			</g>
		</g>
		<polygon fill="#FFFFFF" points="47,14.236 49.188,18.668 54.076,19.378 50.538,22.826 51.374,27.697 47,25.397 42.626,27.697 
			43.462,22.826 39.924,19.378 44.812,18.668 		"/>
	</g>
	<path fill="#FFFFFF" d="M47.5,92.547C22.385,92.547,1.953,72.114,1.953,47c0-25.115,20.432-45.547,45.547-45.547
		c25.114,0,45.547,20.432,45.547,45.547C93.047,72.114,72.614,92.547,47.5,92.547z M47.5,3.371C23.443,3.371,3.871,22.943,3.871,47
		c0,24.057,19.572,43.629,43.629,43.629c24.057,0,43.629-19.572,43.629-43.629C91.129,22.943,71.557,3.371,47.5,3.371z"/>
</g>
</svg>
