<?xml version="1.0" encoding="utf-8"?>
<!-- Generator: Adobe Illustrator 16.0.0, SVG Export Plug-In . SVG Version: 6.00 Build 0)  -->
<!DOCTYPE svg PUBLIC "-//W3C//DTD SVG 1.1//EN" "http://www.w3.org/Graphics/SVG/1.1/DTD/svg11.dtd">
<svg version="1.1" id="Layer_1" xmlns="http://www.w3.org/2000/svg" xmlns:xlink="http://www.w3.org/1999/xlink" x="0px" y="0px"
	 width="140px" height="70px" viewBox="0 0 140 70" enable-background="new 0 0 140 70" xml:space="preserve">
<g>
	<g>
		<g>
			<path fill-rule="evenodd" clip-rule="evenodd" fill="#818181" d="M98.713,40.858c0,1.356,0.031,2.71-0.01,4.063
				c-0.033,1.068,0.285,1.779,1.455,1.945c0.254,0.036,0.475,0.326,0.711,0.5c-0.295,0.166-0.586,0.475-0.882,0.478
				c-3.536,0.037-7.071,0.026-10.607,0.031c-8.331,0.011-16.663-0.009-24.994,0.065c-1.369,0.012-2.283-0.358-2.983-1.539
				c-0.988-1.666-2.101-3.257-3.125-4.902c-0.465-0.746-1.106-1.251-1.894-0.814c-0.392,0.219-0.588,0.988-0.663,1.535
				c-0.108,0.81,0.011,1.647-0.041,2.468c-0.079,1.238,0.263,2.09,1.664,2.218c0.205,0.019,0.384,0.299,0.577,0.459
				c-0.151,0.152-0.302,0.431-0.452,0.431c-2.272-0.011-4.543-0.053-6.814-0.114c-0.102-0.004-0.198-0.271-0.277-0.383
				c0.086-0.159,0.115-0.298,0.178-0.314c2.2-0.597,2.2-0.596,2.2-2.923c0-2.861-0.037-5.721,0.014-8.579
				c0.025-1.274-0.223-2.192-1.694-2.378c-0.289-0.037-0.53-0.431-0.944-0.793c2.623-0.473,2.623-0.473,2.624-2.895
				c0.002-2.569-0.043-5.139,0.02-7.706c0.033-1.375-0.376-2.26-1.856-2.415c-0.152-0.016-0.287-0.19-0.396-0.604
				c3.726,0,7.451,0,11.41,0c0.063,0.834,0.14,1.845,0.221,2.915c-0.359-0.022-0.601,0.009-0.621-0.042
				c-0.97-2.544-3.167-1.894-5.072-1.906c-0.277-0.001-0.728,0.464-0.803,0.783c-0.153,0.649-0.125,1.345-0.134,2.021
				c-0.028,2.5,0.858,3.168,3.309,2.407c0.374-0.115,0.67-0.598,0.914-0.969c0.2-0.304,0.268-0.692,0.393-1.044
				c0.179,0.02,0.358,0.04,0.538,0.062c0.05,1.455,0.12,2.91,0.128,4.365c0,0.195-0.289,0.437-0.501,0.556
				c-0.066,0.037-0.377-0.227-0.479-0.407c-0.665-1.16-2.373-1.802-3.5-1.22c-0.302,0.156-0.656,0.556-0.675,0.863
				c-0.08,1.25-0.083,2.51-0.01,3.762c0.018,0.301,0.38,0.687,0.684,0.851c1.753,0.952,4.828,0.206,6.124-1.415
				c0.21-0.262,0.525-0.441,1.005-0.833c0,1.02,0,1.719,0,2.389c1.793,0.536,2.294,0.178,2.301-1.588
				c0.011-2.762-0.037-5.525,0.017-8.287c0.027-1.399-0.145-2.534-1.864-2.691c-0.137-0.013-0.248-0.314-0.585-0.773
				c0.925,0,1.566-0.006,2.205,0.002c2.613,0.028,5.239-0.091,7.837,0.131c3.182,0.273,5.662,1.832,6.648,5.02
				c0.949,3.069,0.256,5.836-2.166,8.075c1.441,0.615,2.125,0.387,2.669-0.993c1.506-3.823,2.92-7.687,4.515-11.473
				c0.267-0.636,1.256-0.967,2.135-1.599c0.593,1.54,1.095,2.773,1.547,4.024c1.067,2.963,2.053,5.957,3.211,8.881
				c0.251,0.634,1.029,1.354,1.673,1.482c1.79,0.352,2.237-0.141,2.24-1.978c0.005-2.714-0.035-5.429,0.017-8.142
				c0.023-1.341-0.132-2.438-1.764-2.637c-0.158-0.02-0.284-0.284-0.405-0.416c0.099-0.168,0.144-0.317,0.192-0.318
				c2.805-0.031,5.619-0.203,8.413-0.024c2.786,0.179,4.45,2.252,3.687,4.575c-0.365,1.111-1.504,1.971-2.445,3.133
				c0.471,2.07,2.789,4.936,5.043,6.132c-2.19,1.862-4.441,3.808-6.73,5.708c-0.713,0.593-0.452,1.101,0.018,1.58
				c2.348,2.401,3.982,5.505,7.054,7.206c0.165,0.092,0.366,0.456,0.312,0.543c-0.127,0.204-0.393,0.433-0.616,0.447
				c-1.864,0.117-3.661,0.398-4.983-1.638c-1.299-2-3.021-3.726-4.559-5.573C98.95,40.712,98.832,40.786,98.713,40.858z
				 M92.861,46.575c1.936,0.579,2.85,0.104,2.867-1.493c0.04-3.39,0.053-6.781-0.039-10.167c-0.018-0.616-0.49-1.632-0.922-1.729
				c-0.671-0.153-1.604,0.15-2.203,0.576c-0.557,0.393-0.82,1.198-1.243,1.871c-0.183-0.113-0.442-0.181-0.476-0.308
				c-0.447-1.709-1.734-2.063-3.246-2.02c-3.276,0.095-3.129-0.723-3.105,3.07c0.016,2.889-0.679,2.694,2.825,2.72
				c1.104,0.009,1.739-0.39,1.862-1.542c0.029-0.272,0.299-0.518,0.459-0.776c0.187,0.042,0.373,0.083,0.559,0.126
				c0,1.57,0.013,3.14-0.018,4.711c-0.003,0.188-0.203,0.483-0.369,0.529s-0.558-0.132-0.582-0.258
				c-0.39-2.166-2.105-1.362-3.371-1.511c-0.916-0.107-1.338,0.446-1.354,1.305c-0.024,1.112-0.061,2.232,0.031,3.337
				c0.035,0.421,0.315,0.959,0.656,1.191c1.676,1.141,5.501,0.361,6.701-1.268c0.261-0.355,0.652-0.615,0.984-0.919
				c0.093,0.071,0.186,0.145,0.279,0.216C93.062,44.987,92.967,45.737,92.861,46.575z M76.691,36.77
				c0.163,0.046,0.326,0.093,0.488,0.141c0.049,0.861,0.111,1.724,0.141,2.587c0.023,0.677,0.039,1.359-0.014,2.033
				c-0.016,0.226-0.253,0.436-0.389,0.651c-0.213-0.145-0.51-0.242-0.625-0.444c-0.674-1.188-2.918-1.917-4.033-1.212
				c-0.279,0.176-0.541,0.605-0.559,0.932c-0.066,1.258-0.068,2.521-0.004,3.777c0.016,0.33,0.281,0.746,0.559,0.951
				c1.564,1.154,5.586,0.396,6.732-1.203c0.265-0.372,0.645-0.66,0.973-0.987c0.094,0.064,0.191,0.129,0.286,0.193
				c-0.072,0.782-0.144,1.565-0.222,2.407c1.276,0.112,1.48-0.601,1.48-1.521c-0.003-3.249,0.008-6.496-0.004-9.745
				c-0.007-1.866-0.502-2.281-2.576-2.151c-0.1,0.776-0.202,1.568-0.32,2.484c-0.314-0.173-0.652-0.246-0.684-0.388
				c-0.406-1.848-1.848-1.89-3.284-1.901c-2.999-0.021-3.021-0.008-2.995,3.038c0.024,2.96-0.49,2.618,2.738,2.69
				c1.083,0.023,1.764-0.352,1.912-1.505C76.33,37.309,76.554,37.043,76.691,36.77z M68.61,19.645c0,3.822-0.024,7.486,0.039,11.148
				c0.006,0.357,0.481,0.864,0.857,1.028c2.242,0.977,6.182-0.665,7.195-2.938c2.16-4.837-0.761-9.324-6.01-9.239
				C70.115,19.653,69.539,19.645,68.61,19.645z M68.552,40.095c0-1.16,0-2.318,0-3.479c0-3.422-0.34-3.738-3.806-3.577
				c-1.069,0.048-1.585,0.345-1.19,1.603c0.729,2.322,0.212,3.565-1.898,4.846c-0.758,0.46-0.901,0.932-0.435,1.641
				c0.875,1.329,1.655,2.736,2.662,3.956c0.582,0.705,1.466,1.271,2.326,1.612c1.406,0.56,2.328-0.173,2.338-1.678
				C68.562,43.379,68.552,41.736,68.552,40.095z M104.933,33.102c-0.821-1.142-1.54-2.102-2.214-3.091
				c-0.543-0.799-0.948-1.703-1.57-2.428c-0.441-0.516-1.139-0.812-1.723-1.208c-0.252,0.607-0.619,1.193-0.727,1.824
				c-0.127,0.75-0.144,1.562,0.002,2.305c0.143,0.741,0.547,1.43,0.897,2.291c-1.7,1.599-0.571,4.004-0.892,6.111
				C100.806,36.949,102.867,35.028,104.933,33.102z M55.694,36.373c0,0.48-0.089,0.984,0.022,1.438
				c0.127,0.516,0.499,1.43,0.649,1.408c1.202-0.178,2.48-0.34,3.529-0.896c1.07-0.567,1.281-2.376,0.722-3.526
				c-0.524-1.083-2.475-1.967-3.727-1.686c-1.598,0.356-1.126,1.642-1.195,2.682C55.681,35.986,55.692,36.179,55.694,36.373z
				 M85.701,32.096v0.006c0.77,0,1.54-0.019,2.311,0.004c1.084,0.033,1.5-0.32,1.113-1.475c-0.973-2.896-0.941-2.907-3.996-2.863
				c-0.289,0.004-0.578-0.004-0.865,0.023c-1.123,0.109-2.596,2.908-1.984,3.859c0.162,0.252,0.629,0.401,0.969,0.427
				C84.062,32.138,84.883,32.096,85.701,32.096z M98.667,22.376c-0.003,2.914,0.618,3.43,2.974,2.48
				c1.35-0.543,2.039-1.999,1.639-3.449c-0.352-1.266-2.016-2.254-3.628-2.016c-1.721,0.254-0.666,1.691-0.978,2.552
				C98.627,22.073,98.667,22.232,98.667,22.376z M87.612,26.448c-0.649-1.696-1.257-3.289-1.865-4.881
				c-0.118,0.014-0.236,0.027-0.354,0.04c-0.555,1.558-1.109,3.114-1.725,4.841C85.063,26.448,86.239,26.448,87.612,26.448z"/>
			<path fill-rule="evenodd" clip-rule="evenodd" fill="#818181" d="M49.218,18.3c0.122,1.343,0.253,2.306,0.276,3.272
				c0.01,0.37-0.224,0.746-0.348,1.118c-0.265-0.286-0.66-0.529-0.776-0.868c-1.096-3.2-5.021-3.923-7.243-2.754
				c-2.89,1.521-3.738,4.163-3.712,7.197c0.007,0.813,0.177,1.639,0.375,2.436c0.627,2.536,1.024,2.684,3.58,2.513
				c1.613-0.108,3.31-0.043,4.861,0.358c1.367,0.35,1.993,0.076,2.36-1.191c0.067-0.23,0.277-0.423,0.55-0.82
				c0.147,0.412,0.279,0.608,0.275,0.803c-0.022,1.739-0.052,3.48-0.124,5.219c-0.011,0.283-0.227,0.56-0.349,0.841
				c-0.238-0.187-0.621-0.329-0.69-0.565c-0.335-1.125-1.113-1.047-2.06-1.023c-2.063,0.051-4.142,0.042-6.193-0.159
				c-1.007-0.102-1.579,0.109-1.945,0.997c-1.396,3.382-1.193,6.625,0.918,9.659c1.932,2.779,7.533,3.445,9.293-0.974
				c0.123-0.31,0.337-0.584,0.509-0.873c0.146,0.035,0.291,0.073,0.438,0.111c-0.127,1.299-0.183,2.611-0.426,3.887
				c-0.063,0.329-0.707,0.75-1.107,0.776c-2.447,0.169-4.997,0.717-7.334,0.247c-6.724-1.35-9.15-9.738-4.462-14.768
				c0.196-0.212,0.394-0.424,0.647-0.694c-0.16-0.239-0.292-0.482-0.466-0.689c-2.552-2.996-2.963-6.435-1.554-9.938
				c1.418-3.529,4.517-5.022,8.137-5.06C44.825,17.336,47.008,17.962,49.218,18.3z M41.233,32.408c0,0.179,0,0.357,0.002,0.537
				c1.523,1.112,3.408,1.152,5.036-0.247C44.337,32.587,42.786,32.498,41.233,32.408z"/>
			<path fill-rule="evenodd" clip-rule="evenodd" fill="#818181" d="M109.551,51.637c-8.878,0-17.754,0-26.658,0
				c-0.092,0.587-0.156,1.002-0.222,1.417c-0.065,0.013-0.134,0.022-0.2,0.036c-0.127-0.42-0.257-0.838-0.404-1.323
				c-0.357,0-0.731,0-1.217,0c-0.077,0.437-0.157,0.884-0.238,1.331c-0.082-0.002-0.164-0.003-0.246-0.006c0-1.046,0-2.092,0-3.139
				c0.059-0.011,0.118-0.021,0.178-0.031c0.092,0.381,0.184,0.761,0.271,1.115c1.035,0.301,1.766,0.246,1.748-1.095
				c0.083,0.378,0.166,0.757,0.292,1.323c8.87,0,17.781,0,26.695,0C109.551,51.389,109.551,51.513,109.551,51.637z"/>
			<path fill-rule="evenodd" clip-rule="evenodd" fill="#818181" d="M33.85,51.276c2.264,0,4.528,0,6.792,0
				c5.469-0.001,10.937-0.004,16.406,0.002c0.763,0,1.39,0.04,1.906-0.842c0.676-1.153,1.852-1.052,2.584-0.205
				c-0.67,0.134-1.504,0.197-2.229,0.513c-0.19,0.083-0.229,1.263-0.016,1.386c0.687,0.398,1.521,0.539,2.159,0.735
				c-0.697,0.719-1.98,0.791-2.566-0.318c-0.482-0.912-1.096-0.895-1.871-0.893c-7.115,0.007-14.228,0.004-21.342,0.003
				c-0.617,0-1.232,0-1.849,0C33.833,51.529,33.841,51.403,33.85,51.276z"/>
			<path fill-rule="evenodd" clip-rule="evenodd" fill="#818181" d="M73.459,53.369c-0.333-0.46-0.665-0.921-1.109-1.537
				c-0.141,0.582-0.223,0.917-0.305,1.254c-0.079-0.004-0.16-0.009-0.24-0.013c0-1.034,0-2.067,0-3.418
				c0.682,0.212,1.422,0.273,1.881,0.665c0.199,0.17-0.174,1.016-0.584,1.535c0.229,0.395,0.459,0.789,0.688,1.184
				C73.678,53.15,73.568,53.259,73.459,53.369z"/>
			<path fill-rule="evenodd" clip-rule="evenodd" fill="#818181" d="M78.416,52.865c-0.737,0.644-1.701,0.822-2.599-0.096
				c-0.79-0.805-0.784-1.792,0.044-2.569c0.904-0.845,1.85-0.668,2.57-0.069c-0.812,0.212-1.67,0.342-2.418,0.701
				c-0.179,0.086-0.158,1.263,0.061,1.374C76.775,52.564,77.61,52.661,78.416,52.865z"/>
			<path fill-rule="evenodd" clip-rule="evenodd" fill="#818181" d="M69.943,49.957c0,0.792,0.137,1.618-0.053,2.361
				c-0.105,0.41-0.733,0.896-1.168,0.94c-0.324,0.034-0.939-0.534-1.029-0.924c-0.168-0.729-0.048-1.523,0.269-2.328
				c0.033,0.553-0.027,1.133,0.127,1.647c0.126,0.426,0.504,0.774,0.773,1.157c0.209-0.374,0.527-0.729,0.603-1.126
				c0.105-0.546,0.026-1.127,0.026-1.692C69.642,49.98,69.792,49.969,69.943,49.957z"/>
			<path fill-rule="evenodd" clip-rule="evenodd" fill="#818181" d="M63.973,51.746c-0.078,0.441-0.156,0.882-0.235,1.32
				c-0.07-0.007-0.139-0.013-0.208-0.02c0-0.989,0-1.978,0-2.753c0.443,0.318,1,0.715,1.763,1.261
				c0.192-0.802,0.282-1.181,0.374-1.558c0.06,0.014,0.119,0.029,0.179,0.045c0,0.995,0,1.994,0,2.988
				c-0.076,0.008-0.151,0.014-0.226,0.02c-0.07-0.404-0.14-0.81-0.226-1.304C64.951,51.746,64.495,51.746,63.973,51.746z"/>
		</g>
	</g>
</g>
</svg>
