<?xml version="1.0" encoding="utf-8"?>
<!-- Generator: Adobe Illustrator 16.0.0, SVG Export Plug-In . SVG Version: 6.00 Build 0)  -->
<!DOCTYPE svg PUBLIC "-//W3C//DTD SVG 1.1//EN" "http://www.w3.org/Graphics/SVG/1.1/DTD/svg11.dtd">
<svg version="1.1" id="Layer_1" xmlns="http://www.w3.org/2000/svg" xmlns:xlink="http://www.w3.org/1999/xlink" x="0px" y="0px"
	 width="140px" height="70px" viewBox="0 0 140 70" enable-background="new 0 0 140 70" xml:space="preserve">
<g>
	<g>
		<path fill-rule="evenodd" clip-rule="evenodd" fill="#818181" d="M115.55,42.507c-0.359,0.53-0.659,1.037-1.021,1.497
			c-1.036,1.312-2.058,2.642-3.162,3.898c-0.981,1.117-2.17,1.994-3.57,2.547c-0.224,0.088-0.465,0.146-0.703,0.17
			c-0.984,0.101-1.647-0.484-1.688-1.477c-0.012-0.292-0.002-0.585-0.002-0.946c-0.312,0.277-0.586,0.526-0.867,0.77
			c-0.77,0.667-1.562,1.317-2.553,1.594c-1.359,0.379-2.387-0.227-2.549-1.64c-0.049-0.423-0.008-0.856-0.078-1.323
			c-0.102,0.107-0.207,0.209-0.302,0.319c-0.811,0.939-1.688,1.801-2.79,2.397c-0.525,0.285-1.084,0.487-1.692,0.384
			c-0.87-0.148-1.565-0.936-1.699-1.814c-0.177-1.16,0.085-2.264,0.399-3.357c0.275-0.959,0.602-1.903,0.903-2.855
			c0.036-0.115,0.052-0.236,0.086-0.392c-0.575,0.054-1.107,0.092-1.634,0.161c-0.086,0.012-0.173,0.143-0.229,0.237
			c-0.862,1.451-1.768,2.872-2.859,4.162c-1.246,1.477-2.626,2.808-4.42,3.604c-0.459,0.205-0.988,0.297-1.492,0.336
			c-1.186,0.092-1.89-0.828-2.02-1.84c-0.201-1.549,0.226-2.988,0.827-4.383c1.243-2.878,3.074-5.342,5.372-7.458
			c0.967-0.89,2.074-1.585,3.317-2.043c0.606-0.224,1.237-0.271,1.868-0.157c0.674,0.121,1.195,0.729,1.32,1.451
			c0.206,1.196-0.075,2.321-0.508,3.422c-0.213,0.547-0.459,1.079-0.689,1.615c0.016,0.024,0.025,0.051,0.041,0.056
			c0.563,0.174,1.619-0.257,1.872-0.761c1.519-3.049,3.192-6.005,5.126-8.812c1.398-2.033,2.92-3.97,4.59-5.792
			c1.678-1.831,3.488-3.516,5.472-5.007c0.834-0.627,1.721-1.197,2.747-1.456c0.408-0.105,0.854-0.117,1.275-0.085
			c0.482,0.038,0.767,0.411,0.82,0.9c0.125,1.14-0.299,2.128-0.846,3.081c-0.034,0.06-0.094,0.131-0.154,0.148
			c-0.32,0.088-0.645,0.159-1.037,0.254c0.286-0.584,0.567-1.09,0.78-1.621c0.149-0.375,0.231-0.783,0.297-1.185
			c0.055-0.326-0.167-0.518-0.454-0.371c-0.54,0.274-1.093,0.559-1.553,0.943c-2.367,1.978-4.385,4.275-6.189,6.773
			c-1.939,2.684-3.722,5.467-5.339,8.355c-0.337,0.603-0.647,1.219-0.968,1.826c0.021,0.025,0.045,0.049,0.066,0.072
			c0.112-0.059,0.236-0.1,0.332-0.179c1.107-0.907,2.23-1.797,3.305-2.739c0.822-0.724,1.605-1.497,2.365-2.286
			c1.544-1.6,3.057-3.229,4.406-5.003c0.078-0.101,0.233-0.171,0.363-0.194c0.258-0.049,0.521-0.054,0.785-0.074
			c0.015-0.001,0.032,0.021,0.086,0.055c-0.32,0.431-0.616,0.878-0.961,1.281c-1.117,1.305-2.242,2.602-3.383,3.885
			c-1.362,1.529-2.836,2.949-4.412,4.252c-1.217,1.006-2.504,1.926-3.752,2.895c-0.159,0.124-0.314,0.287-0.398,0.467
			c-0.748,1.595-1.424,3.217-1.77,4.951c-0.074,0.376-0.094,0.777-0.057,1.159c0.061,0.624,0.605,0.873,1.129,0.538
			c0.777-0.5,1.353-1.207,1.873-1.949c1.062-1.52,2.069-3.077,3.137-4.593c1.357-1.927,2.854-3.736,4.764-5.153
			c0.66-0.49,1.33-0.974,2.142-1.19c0.494-0.133,0.991-0.173,1.497-0.055c0.477,0.111,0.781,0.444,1.055,0.809
			c0.152,0.203,0.272,0.247,0.365-0.017c0.174-0.507,0.528-0.606,1.025-0.577c0.726,0.043,1.456,0.011,2.183,0.012
			c0.103,0.001,0.203,0.01,0.364,0.017c-0.127,0.232-0.229,0.422-0.335,0.607c-1.483,2.571-2.97,5.142-4.452,7.713
			c-0.62,1.076-1.238,2.153-1.849,3.234c-0.087,0.154-0.171,0.326-0.19,0.499c-0.018,0.155,0.005,0.387,0.105,0.466
			c0.104,0.082,0.365,0.088,0.48,0.01c0.504-0.342,1.012-0.689,1.458-1.1c1.087-0.996,1.962-2.181,2.747-3.415
			C114.443,42.446,114.9,42.411,115.55,42.507z M103.443,46.815c-0.021,0.69,0.463,1.015,1.01,0.662
			c0.514-0.329,1.002-0.746,1.392-1.215c1.167-1.403,2.106-2.964,3.035-4.533c0.899-1.521,1.81-3.034,2.696-4.563
			c0.092-0.157,0.119-0.404,0.07-0.58c-0.072-0.254-0.325-0.306-0.574-0.274c-0.123,0.016-0.268,0.021-0.363,0.088
			c-0.525,0.379-1.088,0.724-1.553,1.171c-2.096,2.012-3.654,4.419-5,6.973C103.774,45.271,103.486,46.043,103.443,46.815z
			 M88.762,39.922c-0.081,0.07-0.137,0.102-0.172,0.151c-1.192,1.601-2.282,3.265-2.926,5.172c-0.193,0.573-0.371,1.168-0.162,1.792
			c0.174,0.516,0.643,0.776,1.166,0.637c0.545-0.146,0.992-0.455,1.402-0.824c1.361-1.228,2.396-2.705,3.27-4.307
			c0.125-0.228,0.1-0.344-0.146-0.453C90.172,41.631,89.311,40.979,88.762,39.922z M93.321,37.65c0-0.16,0.013-0.318-0.001-0.476
			c-0.069-0.766-0.592-1.126-1.323-0.891c-0.266,0.086-0.521,0.226-0.757,0.381c-0.652,0.43-1.169,0.985-1.32,1.776
			c-0.22,1.157,0.44,2.212,1.666,2.735c0.42,0.18,0.422,0.181,0.65-0.233c0.092-0.165,0.188-0.331,0.262-0.503
			C92.899,39.547,93.323,38.66,93.321,37.65z"/>
		<path fill-rule="evenodd" clip-rule="evenodd" fill="#818181" d="M66.938,35.321c-0.514,0.698-0.969,1.327-1.437,1.948
			c-1.167,1.54-2.429,2.996-3.904,4.254c-0.681,0.582-1.389,1.128-2.23,1.477c-0.462,0.19-0.936,0.24-1.424,0.187
			c-0.439-0.05-0.934-0.498-1.025-0.965c-0.058-0.292-0.042-0.601-0.056-0.901c-0.005-0.131-0.001-0.263-0.001-0.498
			c-0.224,0.221-0.382,0.379-0.542,0.537c-0.693,0.689-1.449,1.291-2.363,1.661c-0.684,0.278-1.38,0.384-2.084,0.062
			c-0.621-0.282-0.907-0.782-0.952-1.446c-0.048-0.726,0.076-1.427,0.287-2.116c0.02-0.065,0.023-0.136-0.029-0.249
			c-0.229,0.221-0.458,0.445-0.692,0.662c-1.166,1.082-2.328,2.172-3.791,2.865c-0.948,0.449-1.951,0.658-2.979,0.494
			c-0.984-0.154-1.664-0.78-2.029-1.71c-0.392-1.001-0.329-2.026-0.068-3.046c0.364-1.427,0.991-2.746,1.724-4.02
			c0.03-0.052,0.05-0.11,0.103-0.225c-0.137,0.016-0.223,0.017-0.306,0.036c-0.276,0.064-0.548,0.148-0.828,0.199
			c-0.309,0.053-0.515,0.2-0.691,0.478c-0.763,1.199-1.48,2.437-2.354,3.553c-1.394,1.78-2.944,3.423-5.025,4.442
			c-0.575,0.282-1.175,0.463-1.826,0.418c-0.95-0.066-1.653-0.656-1.897-1.582c-0.267-1.006-0.182-2.01,0.063-3
			c0.672-2.717,2.158-4.982,3.969-7.062c1.248-1.432,2.642-2.693,4.317-3.609c0.819-0.448,1.681-0.768,2.645-0.734
			c1.069,0.037,1.841,0.763,1.934,1.833c0.118,1.35-0.321,2.575-0.82,3.789c-0.038,0.096-0.078,0.19-0.151,0.367
			c0.199-0.025,0.341-0.02,0.468-0.062c0.809-0.279,1.517-0.746,2.154-1.294c0.965-0.832,1.866-1.735,2.822-2.577
			c0.953-0.837,1.96-1.604,3.199-1.98c0.68-0.204,1.364-0.244,2.058-0.054c0.859,0.235,1.52,1.126,1.43,2.073
			c-0.13,1.356-0.712,2.504-1.797,3.356c-0.515,0.406-1.127,0.391-1.447-0.025c-0.307-0.399-0.225-0.857-0.038-1.263
			c0.39-0.84,0.948-1.497,1.971-1.562c0.09-0.007,0.22-0.124,0.253-0.217c0.173-0.468-0.137-0.916-0.629-0.94
			c-0.556-0.026-1.034,0.189-1.459,0.516c-2.085,1.59-3.628,3.632-4.813,5.943c-0.517,1.006-0.939,2.068-1.31,3.139
			c-0.149,0.434-0.126,0.968-0.046,1.433c0.162,0.924,1.005,1.333,1.942,1.02c0.964-0.323,1.744-0.927,2.465-1.614
			c1.657-1.576,3.054-3.369,4.39-5.219c1.493-2.064,3.113-4.018,5.167-5.562c0.778-0.585,1.603-1.09,2.593-1.241
			c0.782-0.118,1.434,0.11,1.951,0.712c0.04,0.048,0.083,0.092,0.213,0.237c0.042-0.093,0.08-0.172,0.109-0.25
			c0.127-0.334,0.382-0.374,0.708-0.369c0.779,0.011,1.559-0.022,2.338-0.036c0.113-0.003,0.225,0,0.417,0
			c-0.22,0.387-0.399,0.713-0.589,1.033c-2.048,3.462-4.097,6.924-6.14,10.389c-0.095,0.16-0.162,0.347-0.198,0.527
			c-0.077,0.389,0.228,0.664,0.556,0.464c0.547-0.328,1.113-0.67,1.549-1.123c0.938-0.98,1.823-2.015,2.681-3.067
			c0.281-0.345,0.533-0.566,0.986-0.491C66.56,35.341,66.698,35.321,66.938,35.321z M55.63,40.215
			c0.053-0.019,0.194-0.043,0.302-0.115c0.297-0.197,0.594-0.399,0.868-0.628c0.746-0.624,1.291-1.419,1.788-2.235
			c1.553-2.553,3.074-5.124,4.603-7.691c0.237-0.397,0.022-0.765-0.45-0.736c-0.252,0.016-0.514,0.111-0.744,0.226
			c-0.684,0.343-1.17,0.911-1.653,1.486c-1.597,1.908-3.158,3.841-4.329,6.051c-0.482,0.91-0.93,1.841-1.112,2.869
			C54.825,39.883,55.11,40.219,55.63,40.215z M37.667,32.398c-0.045,0.042-0.082,0.063-0.104,0.095
			c-0.948,1.316-1.855,2.66-2.517,4.15c-0.338,0.761-0.656,1.538-0.676,2.385c-0.026,1.076,0.83,1.573,1.75,1.012
			c0.454-0.279,0.889-0.608,1.276-0.974c1.31-1.234,2.241-2.755,3.165-4.279c0.153-0.252,0.041-0.318-0.185-0.389
			c-1.072-0.336-1.997-0.888-2.604-1.875C37.747,32.482,37.706,32.446,37.667,32.398z M38.815,31.511
			c-0.022,0.435,0.167,0.784,0.45,1.08c0.433,0.451,0.952,0.728,1.577,0.858c0.375,0.078,0.518-0.029,0.631-0.343
			c0.231-0.642,0.508-1.268,0.712-1.918c0.156-0.5,0.229-1.021,0.066-1.554c-0.16-0.521-0.439-0.76-0.981-0.747
			c-0.511,0.012-0.93,0.239-1.3,0.571C39.351,30.011,38.856,30.637,38.815,31.511z"/>
		<path fill-rule="evenodd" clip-rule="evenodd" fill="#818181" d="M73.557,44.715c0.102-0.6,0.17-1.151,0.295-1.693
			c0.354-1.526,0.893-2.986,1.758-4.304c1.178-1.791,2.713-3.132,4.845-3.667c0.534-0.134,1.075-0.203,1.614,0.001
			c0.847,0.321,1.184,1.014,1.297,1.834c0.22,1.585-0.182,3.07-0.812,4.505c-0.969,2.203-2.307,4.164-3.997,5.871
			c-1.2,1.209-2.536,2.264-4.091,2.986c-1.332,0.619-2.748,0.859-4.187,0.466c-1.673-0.461-2.685-1.653-3.219-3.25
			c-0.568-1.699-0.482-3.43-0.039-5.141c0.844-3.258,2.358-6.205,4.221-8.986c1.35-2.018,2.813-3.947,4.48-5.717
			c2.279-2.418,4.736-4.621,7.66-6.248c1.367-0.763,2.797-1.387,4.309-1.778c1.059-0.274,2.146-0.357,3.204,0.047
			c0.261,0.101,0.515,0.25,0.729,0.43c0.201,0.167,0.365,0.169,0.602,0.094c0.729-0.233,1.459-0.482,2.205-0.646
			c1.306-0.285,2.615-0.206,3.917,0.084c1.429,0.316,2.688,1.024,3.972,1.677c1.003,0.512,1.996,1.041,2.992,1.566
			c0.109,0.056,0.207,0.133,0.344,0.22c-0.26,0.239-0.498,0.442-0.717,0.665c-0.553,0.563-1.104,1.131-1.639,1.713
			c-0.151,0.164-0.262,0.192-0.453,0.073c-1.229-0.757-2.467-1.498-3.695-2.255c-1.326-0.814-2.711-1.488-4.221-1.888
			c-0.636-0.169-1.281-0.26-1.939-0.172c-0.455,0.062-0.5,0.118-0.48,0.572c0.059,1.456-0.342,2.809-0.908,4.127
			c-0.823,1.907-2.014,3.546-3.565,4.921c-0.677,0.602-1.454,1.056-2.339,1.267c-0.356,0.083-0.763,0.073-1.123-0.003
			c-0.662-0.139-0.92-0.68-1.062-1.282c-0.179-0.752,0.01-1.464,0.282-2.155c1.01-2.553,2.67-4.618,4.823-6.293
			c0.605-0.474,1.255-0.888,1.883-1.333c0.07-0.049,0.132-0.112,0.233-0.2c-0.584-0.189-1.117-0.173-1.633-0.016
			c-1.305,0.396-2.444,1.122-3.555,1.886c-2.402,1.649-4.392,3.735-6.264,5.946c-1.965,2.321-3.733,4.781-5.221,7.438
			c-0.993,1.768-1.842,3.6-2.377,5.56c-0.316,1.158-0.586,2.333-0.592,3.54c-0.002,0.755,0.173,1.49,0.627,2.118
			c0.842,1.158,2.185,1.475,3.582,0.848c1.383-0.622,2.492-1.604,3.488-2.721c1.48-1.661,2.66-3.5,3.316-5.646
			c0.218-0.71,0.352-1.432,0.313-2.18c-0.003-0.053-0.007-0.105-0.013-0.157c-0.086-0.795-0.607-1.119-1.361-0.848
			c-0.553,0.199-0.981,0.566-1.349,1.013c-0.942,1.142-1.581,2.428-1.864,3.887c-0.018,0.088-0.096,0.199-0.174,0.236
			c-1.515,0.721-2.806,1.741-3.971,2.936C73.681,44.677,73.656,44.678,73.557,44.715z M91.521,22.256
			c0.006-0.533-0.053-0.568-0.471-0.338c-0.01,0.006-0.018,0.012-0.027,0.017c-2.82,1.627-4.864,3.964-6.238,6.893
			c-0.209,0.444-0.306,0.965-0.341,1.458c-0.04,0.56,0.366,0.921,0.927,0.869c0.289-0.026,0.595-0.148,0.848-0.301
			c1.852-1.126,3.195-2.723,4.174-4.636C91.039,24.958,91.397,23.612,91.521,22.256z"/>
		<path fill-rule="evenodd" clip-rule="evenodd" fill="#818181" d="M64.013,51.483c-1.031-0.46-1.999-0.951-3.007-1.332
			c-1.727-0.65-3.527-0.915-5.37-0.74c-1.396,0.135-2.56,0.733-3.417,1.869c-0.063,0.082-0.128,0.162-0.188,0.237
			c-0.329-0.388-0.629-0.776-0.963-1.133c-0.93-0.998-2.114-1.551-3.414-1.873c-1.869-0.463-3.755-0.406-5.649-0.165
			c-1.897,0.243-3.734,0.743-5.584,1.199c-1.94,0.479-3.896,0.897-5.848,1.332c-1.344,0.299-2.706,0.446-4.079,0.308
			c-2.289-0.229-4.245-1.112-5.633-3.026c-0.637-0.878-0.97-1.888-1.156-2.942c-0.411-2.338-0.079-4.613,0.614-6.855
			c1.222-3.959,3.402-7.355,6.125-10.433c1.896-2.144,4.024-4.028,6.417-5.594c1.642-1.074,3.389-1.974,5.326-2.395
			c0.788-0.171,1.612-0.282,2.412-0.248c1.188,0.05,2.32,0.884,2.329,2.42c0.008,1.336-0.606,2.408-1.445,3.376
			c-0.304,0.352-0.719,0.536-1.192,0.587c-0.573,0.062-0.907-0.18-0.993-0.751c-0.089-0.601,0.115-1.115,0.459-1.596
			c0.421-0.585,0.95-0.985,1.697-1.014c0.244-0.01,0.326-0.142,0.355-0.357c0.105-0.809-0.458-1.352-1.338-1.208
			c-0.544,0.09-1.085,0.257-1.599,0.462c-1.466,0.584-2.73,1.498-3.886,2.558c-3.627,3.319-6.611,7.134-8.806,11.545
			c-0.993,1.996-1.737,4.091-2.065,6.303c-0.199,1.343-0.167,2.692,0.289,3.997c0.497,1.42,1.526,2.293,2.889,2.856
			c1.561,0.646,3.166,0.714,4.808,0.494c2.311-0.315,4.555-0.934,6.815-1.483c1.86-0.45,3.715-0.935,5.583-1.349
			c2.536-0.562,5.1-0.925,7.707-0.821c2.839,0.112,5.483,0.874,7.813,2.547c1.12,0.805,2.203,1.659,3.289,2.507
			C63.565,50.967,63.771,51.234,64.013,51.483z"/>
		<path fill-rule="evenodd" clip-rule="evenodd" fill="#818181" d="M122.086,19.245c-0.588,1.162-1.318,2.227-2.193,3.188
			c-1.866,2.05-4.046,3.65-6.682,4.573c-1.438,0.502-2.915,0.739-4.441,0.551c-0.085-0.011-0.168-0.024-0.25-0.042
			c-0.028-0.006-0.056-0.023-0.143-0.064c0.45-0.601,0.883-1.19,1.329-1.771c0.218-0.282,0.448-0.561,0.698-0.815
			c0.09-0.093,0.252-0.172,0.379-0.167c2.208,0.097,4.199-0.603,6.117-1.613c1.9-1,3.59-2.272,5.11-3.781
			C122.033,19.28,122.061,19.264,122.086,19.245z"/>
		<path fill-rule="evenodd" clip-rule="evenodd" fill="#818181" d="M68.243,30.329c0.557-0.916,1.086-1.787,1.623-2.652
			c0.035-0.058,0.135-0.107,0.207-0.108c0.925-0.005,1.85-0.004,2.838-0.004c-0.074,0.132-0.121,0.227-0.176,0.318
			c-0.451,0.75-0.898,1.499-1.358,2.24c-0.062,0.101-0.198,0.213-0.304,0.215c-0.863,0.027-1.728,0.029-2.59,0.035
			C68.422,30.374,68.362,30.352,68.243,30.329z"/>
		<path fill-rule="evenodd" clip-rule="evenodd" fill="#818181" d="M110.656,50.563c-0.387-0.137-0.537-0.425-0.428-0.817
			c0.093-0.338,0.453-0.529,0.832-0.441c0.283,0.066,0.542,0.441,0.499,0.724c-0.056,0.367-0.411,0.66-0.757,0.614
			c-0.055-0.006-0.104-0.058-0.156-0.089c0.095-0.003,0.189,0,0.283-0.011c0.262-0.033,0.531-0.298,0.531-0.55
			c0-0.276-0.15-0.482-0.404-0.586c-0.244-0.101-0.562,0.021-0.68,0.254c-0.129,0.259-0.102,0.509,0.107,0.726
			C110.541,50.446,110.6,50.504,110.656,50.563z"/>
		<path fill-rule="evenodd" clip-rule="evenodd" fill="#818181" d="M110.656,50.563c-0.057-0.06-0.115-0.117-0.172-0.177
			c-0.209-0.217-0.236-0.467-0.107-0.726c0.117-0.233,0.436-0.354,0.68-0.254c0.254,0.104,0.404,0.31,0.404,0.586
			c0,0.252-0.27,0.517-0.531,0.55c-0.094,0.011-0.188,0.008-0.283,0.011L110.656,50.563z M111.035,50.261
			c0.021-0.12,0.051-0.229,0.058-0.341c0.005-0.084,0.011-0.203-0.038-0.247c-0.068-0.062-0.191-0.099-0.281-0.082
			c-0.051,0.011-0.1,0.142-0.112,0.225c-0.019,0.13-0.005,0.267-0.005,0.458c0.088-0.1,0.135-0.152,0.188-0.212
			C110.922,50.142,110.984,50.207,111.035,50.261z"/>
		<path fill-rule="evenodd" clip-rule="evenodd" fill="#818181" d="M111.035,50.261c-0.051-0.054-0.113-0.119-0.191-0.199
			c-0.053,0.06-0.1,0.112-0.188,0.212c0-0.191-0.014-0.328,0.005-0.458c0.013-0.083,0.062-0.214,0.112-0.225
			c0.09-0.017,0.213,0.021,0.281,0.082c0.049,0.044,0.043,0.163,0.038,0.247C111.086,50.032,111.057,50.141,111.035,50.261z"/>
	</g>
</g>
</svg>
