<?xml version="1.0" encoding="utf-8"?>
<!-- Generator: Adobe Illustrator 16.0.0, SVG Export Plug-In . SVG Version: 6.00 Build 0)  -->
<!DOCTYPE svg PUBLIC "-//W3C//DTD SVG 1.1//EN" "http://www.w3.org/Graphics/SVG/1.1/DTD/svg11.dtd">
<svg version="1.1" id="Layer_1" xmlns="http://www.w3.org/2000/svg" xmlns:xlink="http://www.w3.org/1999/xlink" x="0px" y="0px"
	 width="140px" height="70px" viewBox="0 0 140 70" enable-background="new 0 0 140 70" xml:space="preserve">
<g>
	<g>
		<path fill-rule="evenodd" clip-rule="evenodd" fill="#818181" d="M117.041,24.148c-0.052,0.425-0.15,0.85-0.15,1.274
			c-0.01,5.245-0.004,10.492-0.006,15.735c0,0.274-0.029,0.548-0.052,0.916c-1.918,0-3.784,0.028-5.647-0.029
			c-0.283-0.009-0.619-0.366-0.82-0.64c-2.278-3.124-4.535-6.262-6.894-9.524c0,3.447,0,6.745,0,10.12c-1.663,0-3.388,0-5.206,0
			c0-6.407,0-12.82,0-19.362c1.916,0,3.93-0.023,5.944,0.027c0.249,0.008,0.539,0.372,0.728,0.63
			c2.176,2.971,4.335,5.953,6.499,8.93c0.104,0.14,0.217,0.275,0.415,0.525c0-3.435,0-6.718,0-10.102c1.713,0,3.452,0,5.189,0
			C117.041,23.148,117.041,23.648,117.041,24.148z"/>
		<path fill-rule="evenodd" clip-rule="evenodd" fill="#818181" d="M23.359,22.648c5.615,0,11.229,0,16.913,0
			c0,1.485,0,2.934,0,4.497c-3.465,0-6.938,0-10.489,0c0,0.989,0,1.87,0,2.864c3.479,0,6.955,0,10.494,0c0,1.585,0,3.06,0,4.631
			c-3.518,0-6.996,0-10.521,0c0,0.956,0,1.819,0,2.777c3.477,0,6.956,0,10.51,0c0,1.569,0,3.045,0,4.66c-0.366,0-0.727,0-1.09,0
			c-4.9,0-9.799-0.002-14.698,0.002c-0.373,0.003-0.746,0.036-1.118,0.056c0-0.188,0-0.374,0-0.562
			c0.07-0.325,0.201-0.65,0.202-0.976c0.01-5.562,0.005-11.123-0.01-16.685c0-0.297-0.125-0.592-0.192-0.888
			C23.359,22.899,23.359,22.774,23.359,22.648z"/>
		<path fill-rule="evenodd" clip-rule="evenodd" fill="#818181" d="M23.359,23.024c0.067,0.296,0.192,0.59,0.192,0.888
			c0.016,5.562,0.02,11.123,0.01,16.685c-0.001,0.325-0.132,0.65-0.202,0.976C23.359,35.391,23.359,29.206,23.359,23.024z"/>
		<path fill-rule="evenodd" clip-rule="evenodd" fill="#818181" d="M50.579,30.771c-2.852-2.726-5.618-5.369-8.538-8.155
			c2.16,0,4.145,0.087,6.118-0.03c1.417-0.082,2.539,0.224,3.422,1.379c0.661,0.864,1.4,1.672,2.184,2.599
			c1.865-2.484,3.487-4.615,5.071-6.774c0.367-0.502,0.736-0.732,1.378-0.717c1.863,0.048,3.728,0.017,5.788,0.017
			c-2.86,3.66-5.612,7.183-8.328,10.661c1.103,1.116,2.165,2.195,3.286,3.335c1.579-2.095,3.169-4.203,4.758-6.312
			c0.789-1.048,1.559-2.108,2.377-3.131c0.186-0.233,0.535-0.471,0.813-0.477c2.023-0.04,4.046-0.022,6.155-0.022
			c-3.53,4.549-6.998,9.02-10.523,13.562c5.196,4.951,10.365,9.877,15.558,14.823c-0.08,0.061-0.143,0.146-0.206,0.146
			c-2.466,0.009-4.934,0.033-7.399-0.009c-0.342-0.007-0.738-0.283-1.006-0.542c-3.19-3.077-6.36-6.176-9.536-9.271
			c-0.221-0.214-0.447-0.424-0.738-0.701c-1.392,1.841-2.925,3.551-4.083,5.486c-1.244,2.078-2.824,2.905-5.191,2.549
			c-1.032-0.155-2.108-0.024-3.296-0.024c3.02-3.902,5.959-7.701,8.882-11.478c-1.101-1.133-2.139-2.202-3.261-3.356
			c-0.408,0.532-0.778,1.018-1.149,1.502c-1.422,1.858-2.823,3.735-4.289,5.556c-0.263,0.329-0.792,0.609-1.208,0.624
			c-1.833,0.067-3.67,0.029-5.713,0.029C44.857,38.206,47.696,34.517,50.579,30.771z"/>
		<path fill-rule="evenodd" clip-rule="evenodd" fill="#818181" d="M84.449,43.035c-5.74-0.077-10.352-4.111-10.973-9.65
			c-0.541-4.81,2.676-9.431,7.636-10.972c5.476-1.702,11.479,1.012,13.608,6.151c2.461,5.939-1.214,12.709-7.684,14.115
			C86.189,42.865,85.312,42.92,84.449,43.035z M79.148,32.378c0.086,0.552,0.11,1.121,0.268,1.65
			c0.629,2.116,1.93,3.624,4.122,4.178c1.849,0.466,3.37-0.24,4.612-1.587c1.881-2.043,2.1-5.394,0.518-7.714
			c-0.946-1.386-2.227-2.26-3.947-2.336C81.674,26.436,79.217,29.03,79.148,32.378z"/>
	</g>
</g>
</svg>
