<?xml version="1.0" encoding="utf-8"?>
<!-- Generator: Adobe Illustrator 16.0.0, SVG Export Plug-In . SVG Version: 6.00 Build 0)  -->
<!DOCTYPE svg PUBLIC "-//W3C//DTD SVG 1.1//EN" "http://www.w3.org/Graphics/SVG/1.1/DTD/svg11.dtd">
<svg version="1.1" id="Layer_1" xmlns="http://www.w3.org/2000/svg" xmlns:xlink="http://www.w3.org/1999/xlink" x="0px" y="0px"
	 width="94px" height="94px" viewBox="0 0 94 94" enable-background="new 0 0 94 94" xml:space="preserve">
<g>
	<g>
	</g>
</g>
<g>
	<g>
		<g>
			<g>
				<path fill="#FFFFFF" d="M30.175,39.992h-4.626v2.625h4.273v2.641h-4.273v5.299h-3.01V37.351h7.636V39.992z"/>
				<path fill="#FFFFFF" d="M39.533,37.351c2.448,0,4.306,1.329,4.306,3.922c0,1.985-1.089,3.313-2.705,3.826l4.546,5.458h-3.826
					l-4.033-5.219v5.219h-3.01V37.351H39.533z M38.172,43.209c1.137,0,2.497-0.08,2.497-1.729c0-1.648-1.36-1.729-2.497-1.729H37.82
					v3.457H38.172z"/>
				<path fill="#FFFFFF" d="M57.022,39.992h-4.546v2.625h4.354v2.641h-4.354v2.657h4.546v2.642h-7.556V37.351h7.556V39.992z"/>
				<path fill="#FFFFFF" d="M69.502,39.992h-4.546v2.625h4.354v2.641h-4.354v2.657h4.546v2.642h-7.556V37.351h7.556V39.992z"/>
				<path fill="#FFFFFF" d="M36.009,67.145c-0.721,3.346-3.506,4.771-6.099,4.771c-3.554,0-6.435-3.058-6.435-6.835
					c0-3.793,2.721-6.851,6.435-6.851c2.321,0,3.938,0.864,5.09,2.257l-1.969,2.16c-0.769-1.232-1.776-1.695-2.945-1.695
					c-1.856,0-3.361,1.84-3.361,4.129c0,2.24,1.505,4.066,3.361,4.066c1.44,0,2.865-0.93,2.865-2.546H29.91v-2.321h6.099V67.145z"/>
				<path fill="#FFFFFF" d="M43.541,71.675h-3.01V58.469h3.01V71.675z"/>
				<path fill="#FFFFFF" d="M56.295,61.11h-4.626v2.626h4.273v2.641h-4.273v5.298h-3.01V58.469h7.636V61.11z"/>
				<path fill="#FFFFFF" d="M59.331,58.469h9.284v2.642h-3.138v10.564h-3.009V61.11h-3.138V58.469z"/>
			</g>
		</g>
		<polygon fill="#FFFFFF" points="47,14.236 49.188,18.668 54.076,19.377 50.538,22.826 51.374,27.697 47,25.397 42.626,27.697 
			43.462,22.826 39.924,19.377 44.812,18.668 		"/>
	</g>
	<path fill="#FFFFFF" d="M47.5,92.547C22.385,92.547,1.953,72.114,1.953,47S22.385,1.453,47.5,1.453
		c25.114,0,45.547,20.432,45.547,45.547S72.614,92.547,47.5,92.547z M47.5,3.371C23.443,3.371,3.871,22.942,3.871,47
		S23.443,90.629,47.5,90.629c24.057,0,43.629-19.572,43.629-43.629S71.557,3.371,47.5,3.371z"/>
</g>
</svg>
