<?xml version="1.0" encoding="utf-8"?>
<!-- Generator: Adobe Illustrator 16.0.0, SVG Export Plug-In . SVG Version: 6.00 Build 0)  -->
<!DOCTYPE svg PUBLIC "-//W3C//DTD SVG 1.1//EN" "http://www.w3.org/Graphics/SVG/1.1/DTD/svg11.dtd">
<svg version="1.1" id="Layer_1" xmlns="http://www.w3.org/2000/svg" xmlns:xlink="http://www.w3.org/1999/xlink" x="0px" y="0px"
	 width="140px" height="70px" viewBox="0 0 140 70" enable-background="new 0 0 140 70" xml:space="preserve">
<g>
	<path fill-rule="evenodd" clip-rule="evenodd" fill="#818181" d="M54.256,24.469c2.538,0,4.783-0.156,6.985,0.081
		c0.845,0.091,1.89,0.909,2.335,1.688c1.996,3.493,3.805,7.095,5.695,10.648c0.451,0.851,0.958,1.672,1.778,3.094
		c1.532-2.867,2.815-5.264,4.095-7.662c0.461-0.868,0.918-1.741,1.383-2.608c3.105-5.823,3.31-5.961,9.645-5.189
		c0.572,0.069,1.513,0.824,1.521,1.272c0.097,6.776,0.066,13.555,0.066,20.519c-1.936,0-3.588,0-5.537,0c0-4.832,0-9.626,0-14.418
		c-0.225-0.08-0.452-0.16-0.676-0.24c-0.605,1.107-1.223,2.207-1.812,3.32c-1.553,2.923-3.283,5.772-4.579,8.805
		c-0.989,2.314-2.446,2.901-4.778,2.78c-1.572-0.081-2.4-0.612-3.078-1.981c-1.789-3.604-3.712-7.144-5.596-10.699
		c-0.395-0.75-0.854-1.462-1.809-2.058c0,4.762,0,9.522,0,14.477c-2.028,0-3.75,0-5.639,0
		C54.256,39.063,54.256,31.954,54.256,24.469z"/>
	<path fill-rule="evenodd" clip-rule="evenodd" fill="#818181" d="M37.111,24.469c3.669-0.003,7.34,0.077,11.005-0.036
		c1.95-0.062,2.907,0.301,2.899,2.599c-0.012,2.355-0.943,2.815-3.041,2.784c-6.619-0.102-13.244,0.057-19.863-0.085
		c-2.601-0.055-3.578,0.854-3.371,3.418c0.156,1.958,0.055,3.935,0.037,5.903c-0.011,1.563,0.768,2.314,2.297,2.315
		c5.369,0.005,10.74,0.083,16.104-0.09c0.776-0.024,1.513-1.253,2.27-1.923c-0.741-0.513-1.443-1.382-2.228-1.465
		c-2.037-0.211-4.113-0.149-6.168-0.058c-1.915,0.085-1.912-1.106-1.883-2.449c0.025-1.263-0.188-2.569,1.789-2.54
		c4.025,0.061,8.057-0.066,12.076,0.106c0.656,0.029,1.728,1.148,1.805,1.853c0.233,2.121,0.179,4.293,0.037,6.432
		c-0.212,3.153-2.186,5.152-5.391,5.202c-7.068,0.108-14.138,0.104-21.206,0.001c-2.974-0.043-4.903-2.014-5.063-5.203
		c-0.186-3.747-0.209-7.523,0.003-11.27c0.204-3.603,2.362-5.375,6.349-5.475C29.413,24.395,33.262,24.469,37.111,24.469z"/>
	<path fill-rule="evenodd" clip-rule="evenodd" fill="#818181" d="M119.941,24.498c0,1.961,0,3.618,0,5.68
		c-3.031,0-5.955-0.001-8.877,0c-3.939,0-7.879,0.053-11.818-0.019c-1.898-0.035-2.851,0.587-2.723,2.631
		c0.111,1.784,0.125,3.586,0,5.37c-0.151,2.179,0.858,2.777,2.873,2.749c5.639-0.081,11.279-0.028,16.92-0.025
		c3.9,0,3.904,0.002,3.766,4.017c-0.016,0.43-0.077,0.857-0.147,1.592c-4.038,0-7.947,0-11.859,0
		c-3.849-0.001-7.698,0.055-11.547-0.022c-3.338-0.066-5.28-1.693-5.497-4.999c-0.248-3.741-0.262-7.519-0.07-11.263
		c0.193-3.74,2.021-5.582,5.826-5.662C104.386,24.382,111.99,24.498,119.941,24.498z"/>
</g>
</svg>
