<?xml version="1.0" encoding="utf-8"?>
<!-- Generator: Adobe Illustrator 16.0.0, SVG Export Plug-In . SVG Version: 6.00 Build 0)  -->
<!DOCTYPE svg PUBLIC "-//W3C//DTD SVG 1.1//EN" "http://www.w3.org/Graphics/SVG/1.1/DTD/svg11.dtd">
<svg version="1.1" id="Layer_1" xmlns="http://www.w3.org/2000/svg" xmlns:xlink="http://www.w3.org/1999/xlink" x="0px" y="0px"
	 width="170px" height="134.44px" viewBox="0 0 170 134.44" enable-background="new 0 0 170 134.44" xml:space="preserve">
<g>
	<rect fill="#CF0A2C" width="170" height="134.44"/>
	<g>
		<g>
			<g>
				<g>
					<path fill-rule="evenodd" clip-rule="evenodd" fill="#FFFFFF" d="M52.398,74.589c0-17.761,0-35.39,0-53.093
						c8.035,0,14.874,0,22.94,0c0,17.708,0,35.362,0,53.093C67.685,74.589,60.095,74.589,52.398,74.589z"/>
				</g>
				<polygon fill-rule="evenodd" clip-rule="evenodd" fill="#FFFFFF" points="119.992,73.653 93.797,73.653 75.464,49.663 
					101.661,49.663 				"/>
				
					<polygon fill-rule="evenodd" clip-rule="evenodd" fill="#FFFFFF" stroke="#FFFFFF" stroke-width="1.1643" stroke-linejoin="round" stroke-miterlimit="10" points="
					93.364,15.566 97.221,27.44 109.705,27.44 99.606,34.777 103.463,46.654 93.364,39.313 83.264,46.654 87.121,34.777 
					77.021,27.44 89.506,27.44 				"/>
			</g>
			<rect x="77.54" y="56.06" fill="#CF0A2C" width="32.505" height="2.305"/>
			<rect x="84.696" y="64.745" fill="#CF0A2C" width="32.501" height="2.306"/>
		</g>
		<g>
			<g>
				<path fill="#FFFFFF" d="M16.806,84.711h2.978v9.486h0.058l4.349-9.486h2.978l-4.057,8.318l4.816,12.465h-3.152l-3.386-9.225
					l-1.605,3.008v6.217h-2.978V84.711z"/>
				<path fill="#FFFFFF" d="M30.699,84.711h8.874v2.802h-5.896v6.1h5.137v2.803h-5.137v6.102h5.896v2.977h-8.874V84.711z"/>
				<path fill="#FFFFFF" d="M42.842,84.711h2.861l4.495,12.523h0.058V84.711h2.978v20.783h-2.802l-4.554-12.493h-0.058v12.493
					h-2.978V84.711z"/>
				<path fill="#FFFFFF" d="M58.049,84.711h2.977v20.783h-2.977V84.711z"/>
				<path fill="#FFFFFF" d="M74.219,87.514h-3.444v-2.802h9.866v2.802h-3.444v17.98h-2.977V87.514z"/>
				<path fill="#FFFFFF" d="M83.413,84.711h2.978v8.902h3.678v-8.902h2.977v20.783h-2.977v-9.252h-3.678v9.252h-2.978V84.711z"/>
				<path fill="#FFFFFF" d="M97.133,89.615c0-0.835,0.146-1.576,0.438-2.218c0.291-0.642,0.676-1.171,1.152-1.591
					c0.477-0.417,1.012-0.734,1.605-0.949c0.594-0.213,1.191-0.321,1.795-0.321s1.201,0.107,1.795,0.321
					c0.594,0.214,1.129,0.531,1.605,0.949c0.477,0.419,0.861,0.949,1.153,1.591s0.438,1.383,0.438,2.218v10.975
					c0,0.857-0.146,1.602-0.438,2.232c-0.292,0.634-0.677,1.158-1.153,1.577s-1.012,0.734-1.605,0.948s-1.191,0.321-1.795,0.321
					s-1.201-0.107-1.795-0.321s-1.129-0.529-1.605-0.948s-0.861-0.943-1.152-1.577c-0.292-0.631-0.438-1.375-0.438-2.232V89.615z
					 M100.109,100.59c0,0.721,0.199,1.25,0.599,1.592c0.398,0.34,0.87,0.51,1.415,0.51s1.018-0.17,1.416-0.51
					c0.398-0.342,0.599-0.871,0.599-1.592V89.615c0-0.72-0.2-1.25-0.599-1.59s-0.871-0.511-1.416-0.511s-1.017,0.17-1.415,0.511
					c-0.399,0.341-0.599,0.87-0.599,1.59V100.59z"/>
				<path fill="#FFFFFF" d="M111.201,84.711h2.86l3.823,11.003h0.059l3.795-11.003h2.89v20.783h-2.978v-12.64h-0.059l-2.947,8.933
					h-1.489l-2.919-8.933h-0.059v12.64h-2.977V84.711z"/>
				<path fill="#FFFFFF" d="M132.188,84.711h2.481l4.641,20.783h-2.978l-0.875-4.466h-4.058l-0.876,4.466h-2.977L132.188,84.711z
					 M133.443,90.695h-0.059l-1.46,7.531h2.978L133.443,90.695z"/>
				<path fill="#FFFFFF" d="M151.861,90.695h-2.978v-0.671c0-0.681-0.161-1.27-0.481-1.766c-0.321-0.496-0.861-0.744-1.62-0.744
					c-0.409,0-0.744,0.078-1.007,0.233c-0.263,0.156-0.467,0.356-0.613,0.599s-0.248,0.525-0.307,0.846
					c-0.059,0.322-0.088,0.658-0.088,1.007c0,0.409,0.016,0.754,0.045,1.037c0.029,0.282,0.102,0.525,0.219,0.729
					c0.116,0.204,0.287,0.385,0.51,0.539c0.225,0.157,0.531,0.312,0.92,0.469l2.277,0.904c0.66,0.253,1.196,0.551,1.605,0.89
					c0.408,0.341,0.725,0.741,0.948,1.196c0.224,0.458,0.374,0.984,0.452,1.576c0.078,0.595,0.117,1.271,0.117,2.029
					c0,0.876-0.088,1.688-0.264,2.438c-0.174,0.75-0.462,1.391-0.86,1.926c-0.399,0.535-0.93,0.959-1.591,1.27
					c-0.662,0.312-1.47,0.468-2.423,0.468c-0.72,0-1.392-0.127-2.014-0.38c-0.623-0.252-1.158-0.598-1.605-1.036
					c-0.448-0.438-0.803-0.958-1.065-1.562s-0.395-1.255-0.395-1.955v-1.109h2.978v0.934c0,0.545,0.161,1.037,0.481,1.475
					c0.321,0.438,0.861,0.656,1.62,0.656c0.506,0,0.899-0.072,1.183-0.219c0.281-0.146,0.496-0.35,0.643-0.613
					c0.145-0.262,0.237-0.588,0.276-0.978c0.039-0.389,0.059-0.817,0.059-1.284c0-0.545-0.02-0.992-0.059-1.342
					c-0.039-0.352-0.122-0.633-0.248-0.848c-0.126-0.213-0.302-0.389-0.525-0.525c-0.224-0.135-0.521-0.281-0.89-0.438l-2.131-0.875
					c-1.285-0.525-2.146-1.221-2.584-2.088c-0.438-0.865-0.656-1.95-0.656-3.255c0-0.778,0.106-1.518,0.32-2.218
					c0.215-0.701,0.531-1.303,0.949-1.81s0.949-0.91,1.591-1.212c0.642-0.302,1.392-0.452,2.247-0.452
					c0.74,0,1.416,0.136,2.029,0.409c0.613,0.273,1.139,0.632,1.576,1.08c0.438,0.449,0.773,0.949,1.007,1.504
					c0.233,0.554,0.351,1.124,0.351,1.707V90.695z"/>
			</g>
			<g>
				<path fill="#FFFFFF" d="M51.463,117.759l-2.769-3.954l-0.389-0.588l-0.018,0.008l0.009,0.701v3.833h-1.064v-6.489h1.038
					l2.587,3.79l0.389,0.579l0.018-0.008l-0.018-0.693v-3.668h1.056v6.489H51.463z"/>
				<path fill="#FFFFFF" d="M58.284,116.365h-2.595l-0.433,1.394h-1.272l2.31-6.489h1.427l2.328,6.489h-1.341L58.284,116.365z
					 M56.787,112.818L56,115.354h1.973l-0.778-2.535l-0.182-0.675h-0.026L56.787,112.818z"/>
				<path fill="#FFFFFF" d="M63.356,117.879c-0.744,0-1.419-0.182-1.956-0.484l0.165-1.062c0.545,0.311,1.125,0.483,1.782,0.483
					c0.805,0,1.177-0.319,1.177-0.882c0-1.221-3.089-0.691-3.089-2.863c0-1.057,0.684-1.913,2.25-1.913
					c0.64,0,1.289,0.131,1.773,0.347l-0.155,1.029c-0.528-0.19-1.039-0.295-1.558-0.295c-0.882,0-1.159,0.355-1.159,0.771
					c0,1.185,3.088,0.64,3.088,2.846C65.674,117.109,64.827,117.879,63.356,117.879z"/>
				<path fill="#FFFFFF" d="M71.387,117.759v-2.786h-2.639v2.786h-1.194v-6.489h1.194v2.604h2.639v-2.604h1.194v6.489H71.387z"/>
				<path fill="#FFFFFF" d="M80.128,111.27l-2.25,6.489h-1.35l-2.25-6.489h1.315l1.436,4.672l0.19,0.667h0.026l0.19-0.667
					l1.453-4.672H80.128z"/>
				<path fill="#FFFFFF" d="M81.93,111.27h1.211v6.489H81.93V111.27z"/>
				<path fill="#FFFFFF" d="M89.58,116.66l-0.027,1.099h-4.005v-6.489h1.202v5.391H89.58z"/>
				<path fill="#FFFFFF" d="M95.387,116.66l-0.026,1.099h-4.005v-6.489h1.202v5.391H95.387z"/>
				<path fill="#FFFFFF" d="M101.471,116.695l-0.025,1.063h-4.283v-6.489h4.153l0.017,1.082h-2.976v1.565h2.526v0.978h-2.526v1.801
					H101.471z"/>
				<path fill="#FFFFFF" d="M104.449,117.223c0,0.467-0.381,1.306-0.709,1.773l-0.398-0.096l0.225-1.055
					c-0.217-0.087-0.415-0.32-0.415-0.598c0-0.389,0.173-0.676,0.64-0.676C104.25,116.572,104.449,116.842,104.449,117.223z"/>
				<path fill="#FFFFFF" d="M112.246,112.377v5.382h-1.211v-5.382h-1.825l0.026-1.107h4.811l0.025,1.107H112.246z"/>
				<path fill="#FFFFFF" d="M120.01,117.759l-2.77-3.954l-0.389-0.588l-0.018,0.008l0.009,0.701v3.833h-1.063v-6.489h1.037
					l2.588,3.79l0.389,0.579l0.018-0.008l-0.018-0.693v-3.668h1.056v6.489H120.01z"/>
			</g>
		</g>
	</g>
</g>
</svg>
