<?xml version="1.0" encoding="utf-8"?>
<!-- Generator: Adobe Illustrator 16.0.0, SVG Export Plug-In . SVG Version: 6.00 Build 0)  -->
<!DOCTYPE svg PUBLIC "-//W3C//DTD SVG 1.1//EN" "http://www.w3.org/Graphics/SVG/1.1/DTD/svg11.dtd">
<svg version="1.1" id="Layer_1" xmlns="http://www.w3.org/2000/svg" xmlns:xlink="http://www.w3.org/1999/xlink" x="0px" y="0px"
	 width="8.607px" height="16.965px" viewBox="0 0 8.607 16.965" enable-background="new 0 0 8.607 16.965" xml:space="preserve">
<g>
	<g>
		<path fill="#FFFFFF" d="M2.646,13.825c-0.66-0.892-1.436-1.703-2.326-2.433c0.035-0.007,0.08-0.012,0.135-0.016
			c0.057-0.003,0.131-0.004,0.221-0.004c0.543,0,1.086,0.139,1.633,0.421c0.547,0.279,1.121,0.712,1.717,1.294V0.201h0.559v12.887
			c0.588-0.574,1.162-1.005,1.717-1.29c0.553-0.282,1.094-0.425,1.619-0.425c0.084,0,0.156,0.001,0.211,0.004
			c0.057,0.004,0.109,0.009,0.158,0.016c-0.885,0.723-1.658,1.53-2.322,2.423c-0.662,0.89-1.219,1.873-1.668,2.948
			C3.856,15.695,3.304,14.717,2.646,13.825z"/>
	</g>
</g>
</svg>
