<?xml version="1.0" encoding="utf-8"?>
<!-- Generator: Adobe Illustrator 16.0.0, SVG Export Plug-In . SVG Version: 6.00 Build 0)  -->
<!DOCTYPE svg PUBLIC "-//W3C//DTD SVG 1.1//EN" "http://www.w3.org/Graphics/SVG/1.1/DTD/svg11.dtd">
<svg version="1.1" id="Layer_1" xmlns="http://www.w3.org/2000/svg" xmlns:xlink="http://www.w3.org/1999/xlink" x="0px" y="0px"
	 width="140px" height="70px" viewBox="0 0 140 70" enable-background="new 0 0 140 70" xml:space="preserve">
<g>
	<path fill="none" stroke="#818181" stroke-width="0.701" stroke-miterlimit="2.6131" d="M74.395,15.451l6.695,6.789
		c0,1.991,0,4.687,0,6.788c-2.125-0.27-5.049-0.594-7.173-0.701l-0.054-2.856l-2.551-2.639c-1.646-0.162-2.551-0.053-4.252-0.053
		c-1.008,1.023-1.541,1.453-2.496,2.586l-0.107,12.443l1.859,1.832c1.86,0,3.455-0.107,5.368,0.057l2.179-2.21v-3.287
		c2.125,0.106,5.049,0.484,7.174,0.699v5.927c-2.072,2.154-4.25,4.364-6.482,6.628c-3.773-0.433-7.334-0.323-11.107-0.108
		l-6.164-6.303l-0.105-0.485l0.105-15.247l-0.055-3.017c2.234-2.315,4.412-4.472,6.75-6.897
		C67.857,15.236,70.621,15.236,74.395,15.451L74.395,15.451z"/>
	
		<path fill-rule="evenodd" clip-rule="evenodd" fill="#818181" stroke="#FFFFFF" stroke-width="0.701" stroke-miterlimit="2.6131" d="
		M74.182,15.988l6.377,6.466c0,1.939,0,3.934,0,5.928c-2.072-0.216-4.091-0.486-6.111-0.592v-2.586l-2.869-2.91
		c-1.648-0.162-3.135-0.053-4.729-0.107c-0.957,1.022-1.913,1.885-2.815,2.909l-0.107,12.929l2.179,2.211
		c1.808-0.055,3.933-0.108,5.792,0.053l2.498-2.586v-2.909c2.02,0.106,4.092,0.378,6.111,0.648v5.17
		c-2.02,2.047-4.038,4.041-6.164,6.25c-3.561-0.378-7.068-0.271-10.681-0.055l-5.845-6.088l-0.055-0.215l0.055-14.977v-3.018
		c2.124-2.209,4.145-4.256,6.375-6.573C67.965,15.829,70.515,15.774,74.182,15.988L74.182,15.988z"/>
	
		<path fill-rule="evenodd" clip-rule="evenodd" fill="#FFFFFF" stroke="#818181" stroke-width="0.701" stroke-miterlimit="2.6131" d="
		M94.002,18.629c0.107,2.263-0.053,5.441,0.055,7.812l-2.764-0.646l-0.054,1.67v13.039c0.745,1.293,1.222,2.102,2.021,3.34
		c1.594,0.538,2.55,0.97,4.145,1.617l2.125-1.887l0.053-15.301l-2.338-0.808l0.055-7.918c4.038,1.346,8.661,3.016,12.541,4.848
		c-0.054,2.64-0.16,5.604-0.108,8.352c-0.954-0.484-1.86-1.024-2.866-1.4l-0.109,9.319v6.303c-2.762,2.425-5.578,4.903-8.342,7.273
		c-3.135-1.562-6.482-2.854-9.883-3.934l-4.785-8.08l0.055-17.24v-0.755c-0.851-0.214-1.7-0.269-2.551-0.484v-0.54
		c0.053-2.101,0-5.063,0.053-7.057C85.447,16.743,90.018,17.661,94.002,18.629L94.002,18.629z"/>
	
		<path fill-rule="evenodd" clip-rule="evenodd" fill="#818181" stroke="#FFFFFF" stroke-width="0.701" stroke-miterlimit="2.6131" d="
		M93.472,19.06c0.106,2.21-0.053,4.42,0,6.681l-2.708-0.646l-0.055,2.263V40.61c0.69,1.293,1.434,2.531,2.18,3.717
		c1.593,0.485,3.081,1.133,4.623,1.778l2.551-2.263l0.053-15.947l-2.338-0.862l0.053-6.734c3.877,1.294,7.758,2.693,11.426,4.473
		c0,2.478-0.107,4.472-0.055,7.059c-0.956-0.485-1.913-0.917-2.867-1.348l-0.107,10.453l-0.055,5.765
		c-2.604,2.315-5.207,4.579-7.811,6.896c-3.029-1.509-6.219-2.748-9.46-3.717l-4.622-7.813l0.106-17.078v-1.185
		c-0.851-0.217-1.702-0.27-2.551-0.485l-0.106-0.215c0.106-1.994,0-4.417,0.106-6.303C85.82,17.337,89.646,18.145,93.472,19.06
		L93.472,19.06z"/>
	<path fill="none" stroke="#818181" stroke-width="0.701" stroke-miterlimit="2.6131" d="M57.123,28.11
		c-2.338,0.434-4.781,0.864-6.801,1.295v-4.526h-0.055c-1.008,0.216-1.273,0.216-2.496,0.593l-0.053,17.401
		c1.275-0.376,2.338-0.699,3.666-1.023c0.107,2.478-0.053,5.227,0.055,7.812c-5.209,1.402-9.886,3.557-14.349,5.819l0.052-8.46
		c1.117-0.538,2.232-0.968,3.401-1.508V27.896v-0.322c-1.275,0.377-1.275,0.431-2.497,0.861v0.377v4.417
		c-2.391,0.864-5.154,2.211-7.334,3.233c-0.053-4.632,0.055-8.511,0-13.199c8.396-3.555,17.006-5.926,26.252-7.219l0.213,0.807
		L57.123,28.11L57.123,28.11z"/>
	
		<path fill-rule="evenodd" clip-rule="evenodd" fill="#818181" stroke="#FFFFFF" stroke-width="0.701" stroke-miterlimit="2.6131" d="
		M56.593,27.626c-1.913,0.378-3.88,0.701-5.739,1.077v-4.472L50.8,24.178c-1.222,0.271-2.444,0.487-3.56,0.917l-0.053,18.479
		c1.168-0.323,2.391-0.753,3.666-1.022c0.105,2.369-0.107,4.255,0,6.681c-4.57,1.292-8.928,3.178-13.18,5.332v-7.165
		c1.117-0.538,2.285-0.969,3.402-1.508V26.927v-0.054c-1.17,0.269-2.285,0.753-3.455,1.131l-0.105,0.106v4.743
		c-2.18,0.808-4.197,1.776-6.271,2.748c0-4.473,0.054-7.491,0-11.961c8.024-3.395,16.475-5.711,25.349-7.005l0.053,0.271
		L56.593,27.626L56.593,27.626z"/>
</g>
</svg>
