<?xml version="1.0" encoding="utf-8"?>
<!-- Generator: Adobe Illustrator 16.0.0, SVG Export Plug-In . SVG Version: 6.00 Build 0)  -->
<!DOCTYPE svg PUBLIC "-//W3C//DTD SVG 1.1//EN" "http://www.w3.org/Graphics/SVG/1.1/DTD/svg11.dtd">
<svg version="1.1" id="Layer_1" xmlns="http://www.w3.org/2000/svg" xmlns:xlink="http://www.w3.org/1999/xlink" x="0px" y="0px"
	 width="140px" height="70px" viewBox="0 0 140 70" enable-background="new 0 0 140 70" xml:space="preserve">
<g>
	<path fill="#818181" d="M71.898,37.746c0,1.119-0.908,2.028-2.028,2.028s-2.028-0.909-2.028-2.028c0-1.118,0.908-2.028,2.028-2.028
		S71.898,36.628,71.898,37.746L71.898,37.746z"/>
	<polygon fill="#818181" points="69.49,31.422 68.446,34.626 54.896,24.785 51.98,18.7 69.49,31.422 	"/>
	<polygon fill="#818181" points="68.176,35.434 62.666,35.39 58.57,32.417 55.645,26.328 68.176,35.434 	"/>
	<path fill="#818181" d="M69.877,41.234c0.001,0.002,2.533,1.881,2.533,1.881l-2.55,1.88c0,0-1.831-1.347-2.572-1.885
		C67.294,43.115,69.881,41.24,69.877,41.234L69.877,41.234z"/>
	<polygon fill="#818181" points="87.762,18.7 84.836,24.791 71.291,34.628 70.249,31.418 87.762,18.7 	"/>
	<polygon fill="#818181" points="84.099,26.328 81.171,32.423 76.988,35.482 71.561,35.438 84.099,26.328 	"/>
	<polygon fill="#818181" points="72.586,38.661 74.66,37.161 78.068,39.637 73.91,42.663 72.586,38.661 	"/>
	<polygon fill="#818181" points="85.281,13.699 87.348,17.998 81.002,22.604 85.281,13.699 	"/>
	<polygon fill-rule="evenodd" clip-rule="evenodd" fill="#818181" points="39.4,55.105 39.4,57.062 41.843,57.062 41.843,55.104 
		39.4,55.105 	"/>
	<polygon fill-rule="evenodd" clip-rule="evenodd" fill="#818181" points="26.407,55.107 26.407,57.062 28.85,57.062 28.85,55.107 
		26.407,55.107 	"/>
	<path fill-rule="evenodd" clip-rule="evenodd" fill="#818181" d="M22.524,49.557h2.828l-0.001,4.383
		c0,0.436-0.085,0.846-0.254,1.23c-0.17,0.389-0.438,0.726-0.797,1.013c-0.363,0.29-0.742,0.491-1.139,0.609
		c-0.553,0.165-1.217,0.245-1.991,0.245c-0.447,0-0.937-0.026-1.464-0.075c-0.531-0.049-0.973-0.148-1.328-0.297
		c-0.356-0.149-0.682-0.36-0.977-0.635c-0.294-0.273-0.494-0.557-0.604-0.851c-0.176-0.465-0.264-0.879-0.264-1.24l0.002-4.383
		h2.824v4.482c0,0.397,0.141,0.713,0.419,0.938c0.281,0.226,0.669,0.339,1.167,0.339c0.49,0,0.871-0.11,1.15-0.334
		c0.281-0.222,0.426-0.54,0.426-0.943L22.524,49.557L22.524,49.557z"/>
	<path fill-rule="evenodd" clip-rule="evenodd" fill="#818181" d="M29.784,54.429l2.75-0.142c0.061,0.361,0.181,0.637,0.367,0.825
		c0.3,0.308,0.729,0.46,1.288,0.46c0.416,0,0.738-0.077,0.962-0.234c0.224-0.158,0.339-0.339,0.339-0.545
		c0-0.191-0.107-0.365-0.318-0.519c-0.209-0.154-0.706-0.302-1.482-0.438c-1.273-0.232-2.183-0.537-2.727-0.914
		c-0.546-0.378-0.82-0.86-0.82-1.451c0-0.383,0.139-0.748,0.418-1.093c0.281-0.345,0.703-0.612,1.266-0.811
		c0.562-0.194,1.333-0.293,2.311-0.293c1.201,0,2.117,0.179,2.747,0.535c0.63,0.355,1.005,0.923,1.125,1.698l-2.723,0.131
		c-0.075-0.34-0.229-0.59-0.464-0.744c-0.236-0.154-0.562-0.232-0.977-0.232c-0.338,0-0.598,0.058-0.771,0.172
		c-0.172,0.117-0.254,0.256-0.256,0.418c-0.004,0.116,0.07,0.23,0.216,0.331c0.143,0.097,0.47,0.189,0.981,0.274
		c1.271,0.219,2.18,0.438,2.729,0.663c0.547,0.227,0.947,0.503,1.199,0.835c0.25,0.33,0.375,0.703,0.375,1.11
		c0,0.485-0.167,0.929-0.501,1.335c-0.334,0.405-0.8,0.713-1.398,0.921c-0.601,0.21-1.354,0.315-2.265,0.315
		c-1.602,0-2.709-0.245-3.326-0.738C30.213,55.81,29.865,55.186,29.784,54.429L29.784,54.429z"/>
	<polygon fill-rule="evenodd" clip-rule="evenodd" fill="#818181" points="55.533,49.543 58.064,49.543 58.064,56.907 
		55.533,56.907 55.533,49.543 	"/>
	<polygon fill-rule="evenodd" clip-rule="evenodd" fill="#818181" points="73.26,49.557 80.304,49.557 80.304,51.15 76.115,51.15 
		76.115,52.411 79.688,52.411 79.688,53.9 76.115,53.9 76.115,56.907 73.26,56.907 73.26,49.557 	"/>
	<path fill-rule="evenodd" clip-rule="evenodd" fill="#818181" d="M110.377,53.9l2.547,0.595c-0.174,0.562-0.445,1.03-0.814,1.405
		c-0.367,0.378-0.824,0.659-1.371,0.851c-0.549,0.191-1.244,0.286-2.092,0.286c-1.023,0-1.861-0.115-2.511-0.352
		c-0.649-0.232-1.212-0.64-1.683-1.224c-0.474-0.586-0.709-1.334-0.709-2.253c0-1.214,0.416-2.15,1.248-2.802s2.008-0.98,3.529-0.98
		c1.188,0,2.123,0.188,2.805,0.562c0.682,0.373,1.188,0.95,1.518,1.723l-2.57,0.439c-0.089-0.22-0.186-0.38-0.282-0.483
		c-0.165-0.175-0.366-0.31-0.601-0.402c-0.236-0.095-0.502-0.142-0.793-0.142c-0.664,0-1.17,0.21-1.522,0.619
		c-0.267,0.31-0.401,0.792-0.401,1.446c0,0.814,0.16,1.374,0.478,1.673c0.318,0.303,0.765,0.454,1.339,0.454
		c0.557,0,0.979-0.122,1.264-0.365C110.041,54.711,110.248,54.357,110.377,53.9L110.377,53.9z"/>
	<polygon fill-rule="evenodd" clip-rule="evenodd" fill="#818181" points="114.949,49.557 122.584,49.557 122.582,51.124 
		117.801,51.124 117.803,52.309 122.225,52.309 122.225,53.799 117.801,53.799 117.803,55.24 122.713,55.24 122.713,56.907 
		114.949,56.907 114.949,49.557 	"/>
	<path fill-rule="evenodd" clip-rule="evenodd" fill="#818181" d="M67.654,54.778c-0.062-0.105-0.191-0.261-0.376-0.457
		c-0.188-0.198-0.331-0.325-0.427-0.384c-0.146-0.09-0.377-0.182-0.697-0.272c0.4-0.075,0.711-0.17,0.938-0.292
		c0.358-0.185,0.641-0.425,0.846-0.723c0.202-0.297,0.307-0.649,0.307-1.058c0-0.474-0.136-0.87-0.403-1.197
		s-0.624-0.551-1.061-0.673c-0.438-0.119-1.072-0.18-1.9-0.18H60.42v7.364h2.698v-2.98h0.233c0.245,0,0.462,0.056,0.656,0.172
		c0.14,0.085,0.303,0.276,0.482,0.566l1.43,2.242h3.031L67.654,54.778L67.654,54.778L67.654,54.778z M65.377,52.199
		c-0.113,0.128-0.255,0.206-0.431,0.236c-0.35,0.07-0.585,0.103-0.706,0.103l-1.122,0.003v-1.506h1.165
		c0.488,0,0.82,0.062,0.996,0.188c0.178,0.129,0.266,0.312,0.266,0.556C65.545,51.937,65.49,52.078,65.377,52.199L65.377,52.199z"/>
	<path fill-rule="evenodd" clip-rule="evenodd" fill="#818181" d="M51.088,49.543h-3.053l-3.391,7.368l2.855-0.004l0.436-1.205
		h3.178l0.451,1.205h2.924L51.088,49.543L51.088,49.543L51.088,49.543z M48.549,54.11l0.988-2.651l1.002,2.651H48.549L48.549,54.11z
		"/>
	<path fill-rule="evenodd" clip-rule="evenodd" fill="#818181" d="M101.178,54.783c-0.062-0.109-0.188-0.259-0.375-0.456
		s-0.331-0.327-0.428-0.385c-0.148-0.092-0.379-0.184-0.697-0.275c0.398-0.072,0.711-0.17,0.938-0.288
		c0.359-0.186,0.642-0.428,0.846-0.726c0.205-0.297,0.309-0.647,0.309-1.057c0-0.471-0.134-0.869-0.404-1.194
		c-0.268-0.327-0.62-0.553-1.059-0.674s-1.071-0.182-1.899-0.182l-4.466,0.002v7.364h2.699v-2.979h0.236
		c0.242,0,0.46,0.055,0.653,0.169c0.141,0.087,0.302,0.276,0.483,0.568l1.43,2.242h3.031L101.178,54.783L101.178,54.783
		L101.178,54.783z M98.939,52.223c-0.119,0.124-0.275,0.221-0.462,0.25c-0.374,0.065-0.598,0.102-0.729,0.102h-1.156v-1.567
		l1.242,0.008c0.522,0,0.797,0.054,0.986,0.179c0.188,0.127,0.283,0.337,0.283,0.576C99.104,51.932,99.06,52.099,98.939,52.223
		L98.939,52.223z"/>
	<path fill-rule="evenodd" clip-rule="evenodd" fill="#818181" d="M85.357,51.637c0.348-0.324,0.805-0.486,1.377-0.486
		c0.596,0,1.067,0.159,1.414,0.482c0.35,0.318,0.522,0.826,0.522,1.521c0,0.82-0.168,1.392-0.501,1.708
		c-0.332,0.317-0.803,0.478-1.412,0.478c-0.59,0-1.058-0.16-1.402-0.486c-0.344-0.324-0.516-0.857-0.516-1.598
		C84.84,52.502,85.012,51.962,85.357,51.637L85.357,51.637L85.357,51.637z M82.619,55.387c0.422,0.573,0.977,0.992,1.655,1.256
		c0.683,0.262,1.54,0.395,2.579,0.395c1.02,0,1.873-0.152,2.557-0.458c0.686-0.306,1.207-0.734,1.572-1.283
		c0.36-0.551,0.541-1.257,0.541-2.119c0-1.186-0.414-2.106-1.244-2.764c-0.828-0.657-2.01-0.986-3.541-0.986
		c-1.494,0-2.658,0.336-3.496,1.007c-0.837,0.668-1.256,1.605-1.256,2.805C81.986,54.102,82.195,54.814,82.619,55.387L82.619,55.387
		z"/>
	<polygon fill="#818181" points="54.344,13.738 52.244,18.016 58.552,22.677 54.344,13.738 	"/>
	<polygon fill="#818181" points="65.159,37.137 67.197,38.687 65.816,42.665 61.713,39.567 65.159,37.137 	"/>
</g>
</svg>
