<?xml version="1.0" encoding="utf-8"?>
<!-- Generator: Adobe Illustrator 16.0.0, SVG Export Plug-In . SVG Version: 6.00 Build 0)  -->
<!DOCTYPE svg PUBLIC "-//W3C//DTD SVG 1.1//EN" "http://www.w3.org/Graphics/SVG/1.1/DTD/svg11.dtd">
<svg version="1.1" id="Layer_1" xmlns="http://www.w3.org/2000/svg" xmlns:xlink="http://www.w3.org/1999/xlink" x="0px" y="0px"
	 width="191px" height="44px" viewBox="0 0 191 44" enable-background="new 0 0 191 44" xml:space="preserve">
<g>
	<g>
		<path fill="#FFFFFF" d="M10.152,7.273H6.805V5.079c0-0.825,0.546-1.017,0.929-1.017c0.386,0,2.363,0,2.363,0V0.437L6.843,0.423
			c-3.61,0-4.432,2.706-4.432,4.434v2.416H0.32v3.736h2.091c0,4.792,0,10.567,0,10.567h4.394c0,0,0-5.832,0-10.567h2.962
			L10.152,7.273z"/>
		<g>
			<path fill="#FFFFFF" d="M92.729,10.502H79.1c-2.166,0-3.924,1.757-3.924,3.925v3.154c0,2.164,1.758,3.92,3.924,3.92h13.629
				c2.166,0,3.924-1.756,3.924-3.92v-3.154C96.652,12.26,94.895,10.502,92.729,10.502z M81.963,12.957h-1.266v6.295h-1.227v-6.295
				h-1.266v-1.072h3.758V12.957z M85.543,19.252h-1.087v-0.594c-0.201,0.221-0.409,0.387-0.628,0.502
				c-0.215,0.117-0.426,0.174-0.629,0.174c-0.254,0-0.441-0.082-0.568-0.242c-0.126-0.164-0.191-0.404-0.191-0.73v-4.543h1.088v4.17
				c0,0.129,0.021,0.221,0.066,0.277c0.046,0.061,0.123,0.088,0.223,0.088c0.079,0,0.18-0.037,0.303-0.115
				c0.124-0.076,0.234-0.174,0.337-0.291v-4.129h1.087V19.252z M89.484,18.133c0,0.383-0.084,0.678-0.256,0.885
				c-0.168,0.205-0.417,0.309-0.738,0.309c-0.213,0-0.402-0.041-0.567-0.121c-0.167-0.078-0.323-0.199-0.464-0.367v0.414h-1.1
				v-7.367h1.1v2.375c0.146-0.166,0.301-0.293,0.464-0.377c0.165-0.088,0.333-0.131,0.503-0.131c0.343,0,0.605,0.115,0.785,0.348
				c0.182,0.23,0.273,0.57,0.273,1.018V18.133z M93.253,16.668h-2.078v1.023c0,0.285,0.033,0.484,0.104,0.596
				c0.072,0.111,0.195,0.164,0.369,0.164c0.18,0,0.305-0.045,0.379-0.141c0.069-0.094,0.107-0.299,0.107-0.619v-0.248h1.118v0.279
				c0,0.557-0.137,0.977-0.412,1.26c-0.269,0.279-0.675,0.42-1.218,0.42c-0.486,0-0.869-0.15-1.15-0.447
				c-0.277-0.297-0.418-0.709-0.418-1.232v-2.443c0-0.469,0.152-0.854,0.461-1.152c0.307-0.297,0.702-0.443,1.19-0.443
				c0.495,0,0.879,0.137,1.147,0.412c0.266,0.275,0.399,0.67,0.399,1.184V16.668z"/>
			<path fill="#FFFFFF" d="M91.658,14.635c-0.172,0-0.297,0.049-0.371,0.15c-0.076,0.096-0.112,0.258-0.112,0.486v0.549h0.96v-0.549
				c0-0.229-0.038-0.391-0.115-0.486C91.945,14.684,91.823,14.635,91.658,14.635z"/>
			<path fill="#FFFFFF" d="M87.911,14.619c-0.077,0-0.153,0.014-0.229,0.049c-0.074,0.035-0.148,0.092-0.223,0.166v3.387
				c0.086,0.088,0.172,0.154,0.256,0.193c0.084,0.037,0.17,0.059,0.264,0.059c0.134,0,0.229-0.039,0.292-0.117
				c0.062-0.076,0.093-0.201,0.093-0.373v-2.807c0-0.186-0.035-0.324-0.112-0.418C88.172,14.662,88.06,14.619,87.911,14.619z"/>
			<polygon fill="#FFFFFF" points="80.884,8.614 82.26,8.614 82.26,5.248 83.862,0.497 82.464,0.497 81.611,3.744 81.525,3.744 
				80.63,0.497 79.244,0.497 80.884,5.398 			"/>
			<path fill="#FFFFFF" d="M85.73,8.766c0.555,0,0.99-0.146,1.309-0.438c0.316-0.293,0.475-0.693,0.475-1.205V4.032
				c0-0.456-0.163-0.833-0.484-1.122c-0.322-0.288-0.739-0.434-1.244-0.434c-0.556,0-0.998,0.139-1.329,0.411
				c-0.328,0.274-0.493,0.645-0.493,1.108v3.104c0,0.509,0.16,0.912,0.481,1.215C84.765,8.614,85.193,8.766,85.73,8.766z
				 M85.223,3.951c0-0.131,0.045-0.236,0.139-0.318c0.094-0.08,0.215-0.12,0.363-0.12c0.163,0,0.293,0.04,0.393,0.12
				c0.099,0.082,0.148,0.188,0.148,0.318v3.262c0,0.16-0.047,0.286-0.146,0.379c-0.099,0.091-0.229,0.138-0.396,0.138
				c-0.16,0-0.287-0.044-0.373-0.137c-0.086-0.09-0.129-0.217-0.129-0.38V3.951z"/>
			<path fill="#FFFFFF" d="M89.359,8.703c0.23,0,0.465-0.066,0.709-0.192c0.244-0.128,0.481-0.314,0.704-0.558v0.661h1.224V2.627
				h-1.224v4.546c-0.112,0.128-0.239,0.236-0.376,0.32c-0.139,0.084-0.252,0.128-0.342,0.128c-0.115,0-0.199-0.032-0.25-0.097
				c-0.05-0.063-0.078-0.166-0.078-0.306V2.627h-1.222v5.005c0,0.356,0.071,0.622,0.216,0.799
				C88.864,8.611,89.074,8.703,89.359,8.703z"/>
		</g>
		<path fill="#FFFFFF" d="M56.361,4.31c-0.793,0.354-1.648,0.59-2.543,0.697c0.914-0.546,1.615-1.413,1.946-2.449
			c-0.854,0.508-1.801,0.877-2.812,1.075c-0.807-0.86-1.956-1.398-3.229-1.398c-2.442,0-4.425,1.982-4.425,4.425
			c0,0.35,0.038,0.685,0.115,1.009c-3.678-0.184-6.939-1.945-9.123-4.623c-0.381,0.652-0.599,1.416-0.599,2.225
			c0,1.536,0.78,2.89,1.968,3.685c-0.725-0.025-1.407-0.224-2.004-0.556c0,0.02,0,0.039,0,0.057c0,2.143,1.525,3.933,3.551,4.339
			c-0.371,0.102-0.764,0.156-1.166,0.156c-0.285,0-0.562-0.027-0.833-0.08c0.563,1.758,2.198,3.037,4.133,3.072
			c-1.513,1.189-3.421,1.896-5.495,1.896c-0.356,0-0.709-0.021-1.056-0.062c1.958,1.256,4.286,1.988,6.783,1.988
			c8.141,0,12.592-6.744,12.592-12.592c0-0.191-0.005-0.382-0.012-0.572C55.018,5.977,55.767,5.198,56.361,4.31z"/>
		<path fill="#FFFFFF" d="M132.912,0.147h-13.316c-2.314,0-4.195,1.881-4.195,4.195v4.43v8.888c0,2.312,1.881,4.193,4.195,4.193
			h13.316c2.312,0,4.195-1.881,4.195-4.193V8.772v-4.43C137.107,2.028,135.225,0.147,132.912,0.147z M134.115,2.648l0.479-0.001
			v0.478v3.201l-3.666,0.012l-0.012-3.678L134.115,2.648z M123.156,8.772c0.693-0.962,1.822-1.593,3.098-1.593
			c1.273,0,2.402,0.631,3.096,1.593c0.453,0.628,0.723,1.396,0.723,2.229c0,2.107-1.713,3.82-3.818,3.82
			c-2.107,0-3.822-1.713-3.822-3.82C122.432,10.168,122.703,9.4,123.156,8.772z M134.99,17.66c0,1.146-0.932,2.078-2.078,2.078
			h-13.316c-1.148,0-2.082-0.932-2.082-2.078V8.772h3.24c-0.279,0.689-0.436,1.439-0.436,2.229c0,3.273,2.662,5.935,5.936,5.935
			s5.936-2.662,5.936-5.935c0-0.789-0.16-1.539-0.438-2.229h3.238V17.66z"/>
		<path fill="#FFFFFF" d="M157.666,19.617c0.074,0,0.131-0.059,0.143-0.139l0.389-3.049l-0.389-3.115
			c-0.012-0.082-0.068-0.139-0.143-0.139s-0.135,0.059-0.145,0.139l-0.342,3.115l0.342,3.049
			C157.531,19.559,157.592,19.617,157.666,19.617z M156.521,18.324v0.002l0,0V18.324z M156.383,18.459
			c0.07,0,0.129-0.053,0.139-0.133l0.301-1.896l-0.301-1.926c-0.01-0.08-0.068-0.135-0.139-0.135c-0.072,0-0.131,0.057-0.139,0.135
			l-0.254,1.926l0.254,1.895C156.252,18.402,156.311,18.459,156.383,18.459z M159.203,12.736c-0.012-0.1-0.084-0.174-0.176-0.174
			c-0.09,0-0.164,0.074-0.174,0.174l-0.324,3.695l0.324,3.562c0.01,0.098,0.084,0.168,0.174,0.168c0.092,0,0.164-0.07,0.176-0.168
			l0.365-3.562L159.203,12.736z M160.402,20.305c0.105,0,0.193-0.086,0.203-0.201l0,0l0.348-3.672l-0.348-3.797
			c-0.01-0.115-0.098-0.201-0.203-0.201c-0.107,0-0.193,0.086-0.203,0.201l-0.307,3.797l0.307,3.672
			C160.209,20.219,160.295,20.305,160.402,20.305z M161.789,20.365c0.121,0,0.223-0.098,0.232-0.229l0,0l0.328-3.705l-0.328-3.525
			c-0.01-0.127-0.111-0.229-0.232-0.229c-0.127,0-0.229,0.102-0.234,0.232l-0.289,3.521l0.289,3.705
			C161.561,20.268,161.662,20.365,161.789,20.365z M163.754,16.434l-0.309-5.731c-0.008-0.147-0.121-0.261-0.262-0.261
			s-0.256,0.113-0.262,0.261l-0.271,5.731l0.271,3.703c0.006,0.146,0.121,0.26,0.262,0.26s0.254-0.113,0.262-0.26l0,0
			L163.754,16.434z M164.59,20.404c0.158,0,0.285-0.127,0.293-0.291v0.004l0.287-3.684l-0.287-7.042
			c-0.008-0.163-0.135-0.289-0.293-0.289c-0.156,0-0.285,0.126-0.293,0.289l-0.252,7.042l0.252,3.682
			C164.305,20.277,164.434,20.404,164.59,20.404z M166.01,8.484c-0.174,0-0.316,0.142-0.32,0.321l-0.238,7.63l0.238,3.643
			c0.004,0.178,0.146,0.316,0.32,0.316c0.172,0,0.314-0.139,0.32-0.318v0.002l0.27-3.643l-0.27-7.63
			C166.324,8.625,166.182,8.484,166.01,8.484z M167.439,20.404c0.191,0,0.344-0.154,0.352-0.35v0.002l0.246-3.621l-0.246-7.887
			c-0.008-0.197-0.16-0.348-0.352-0.348s-0.346,0.15-0.352,0.348l-0.219,7.887l0.219,3.621
			C167.094,20.25,167.248,20.404,167.439,20.404z M168.881,20.4c0.209,0,0.375-0.168,0.381-0.381v0.004l0.225-3.588l-0.225-7.687
			c-0.006-0.212-0.172-0.378-0.381-0.378s-0.377,0.166-0.381,0.378l-0.201,7.687l0.201,3.586
			C168.504,20.232,168.672,20.4,168.881,20.4z M170.949,16.436l-0.205-7.406c-0.006-0.229-0.188-0.409-0.412-0.409
			s-0.404,0.181-0.41,0.409l-0.184,7.406L169.922,20c0.006,0.227,0.186,0.406,0.41,0.406s0.406-0.18,0.412-0.41V20L170.949,16.436z
			 M171.795,20.412c0.238,0,0.438-0.195,0.439-0.438v0.002l0.188-3.541l-0.188-8.812c-0.002-0.24-0.201-0.437-0.439-0.437
			s-0.436,0.196-0.439,0.437l-0.166,8.812l0.166,3.541C171.359,20.217,171.557,20.412,171.795,20.412z M173.252,6.358
			c-0.256,0-0.467,0.211-0.469,0.47l-0.193,9.61l0.193,3.488c0.002,0.256,0.213,0.465,0.469,0.465c0.258,0,0.467-0.209,0.471-0.467
			v0.004l0.211-3.49l-0.211-9.611C173.719,6.569,173.51,6.358,173.252,6.358z M174.586,20.416c0.01,0.002,11.75,0.008,11.826,0.008
			c2.355,0,4.268-1.912,4.268-4.268c0-2.357-1.912-4.267-4.268-4.267c-0.584,0-1.143,0.119-1.65,0.33
			c-0.34-3.844-3.562-6.862-7.496-6.862c-0.963,0-1.9,0.191-2.73,0.512c-0.322,0.125-0.406,0.252-0.41,0.501V19.91
			C174.129,20.174,174.33,20.391,174.586,20.416z"/>
	</g>
</g>
<g>
	<g>
		<path fill="#DA2129" d="M10.152,29.127H6.805v-2.195c0-0.824,0.546-1.016,0.929-1.016c0.386,0,2.363,0,2.363,0v-3.625
			l-3.254-0.014c-3.61,0-4.432,2.705-4.432,4.434v2.416H0.32v3.736h2.091c0,4.791,0,10.566,0,10.566h4.394c0,0,0-5.832,0-10.566
			h2.962L10.152,29.127z"/>
		<g>
			<path fill="#DA2129" d="M92.729,32.355H79.1c-2.166,0-3.924,1.758-3.924,3.926v3.154c0,2.164,1.758,3.92,3.924,3.92h13.629
				c2.166,0,3.924-1.756,3.924-3.92v-3.154C96.652,34.113,94.895,32.355,92.729,32.355z M81.963,34.811h-1.266v6.295h-1.227v-6.295
				h-1.266v-1.072h3.758V34.811z M85.543,41.105h-1.087v-0.594c-0.201,0.221-0.409,0.387-0.628,0.502
				c-0.215,0.117-0.426,0.174-0.629,0.174c-0.254,0-0.441-0.082-0.568-0.242c-0.126-0.164-0.191-0.404-0.191-0.73v-4.543h1.088v4.17
				c0,0.129,0.021,0.221,0.066,0.277c0.046,0.061,0.123,0.088,0.223,0.088c0.079,0,0.18-0.037,0.303-0.115
				c0.124-0.076,0.234-0.174,0.337-0.291v-4.129h1.087V41.105z M89.484,39.986c0,0.383-0.084,0.678-0.256,0.885
				c-0.168,0.205-0.417,0.309-0.738,0.309c-0.213,0-0.402-0.041-0.567-0.121c-0.167-0.078-0.323-0.199-0.464-0.367v0.414h-1.1
				v-7.367h1.1v2.375c0.146-0.166,0.301-0.293,0.464-0.377c0.165-0.088,0.333-0.131,0.503-0.131c0.343,0,0.605,0.115,0.785,0.348
				c0.182,0.23,0.273,0.57,0.273,1.018V39.986z M93.253,38.521h-2.078v1.023c0,0.285,0.033,0.484,0.104,0.596
				c0.072,0.111,0.195,0.164,0.369,0.164c0.18,0,0.305-0.045,0.379-0.141c0.069-0.094,0.107-0.299,0.107-0.619v-0.248h1.118v0.279
				c0,0.557-0.137,0.977-0.412,1.26c-0.269,0.279-0.675,0.42-1.218,0.42c-0.486,0-0.869-0.15-1.15-0.447
				c-0.277-0.297-0.418-0.709-0.418-1.232v-2.443c0-0.469,0.152-0.854,0.461-1.152c0.307-0.297,0.702-0.443,1.19-0.443
				c0.495,0,0.879,0.137,1.147,0.412c0.266,0.275,0.399,0.67,0.399,1.184V38.521z"/>
			<path fill="#DA2129" d="M91.658,36.488c-0.172,0-0.297,0.049-0.371,0.15c-0.076,0.096-0.112,0.258-0.112,0.486v0.549h0.96v-0.549
				c0-0.229-0.038-0.391-0.115-0.486C91.945,36.537,91.823,36.488,91.658,36.488z"/>
			<path fill="#DA2129" d="M87.911,36.473c-0.077,0-0.153,0.014-0.229,0.049c-0.074,0.035-0.148,0.092-0.223,0.166v3.387
				c0.086,0.088,0.172,0.154,0.256,0.193c0.084,0.037,0.17,0.059,0.264,0.059c0.134,0,0.229-0.039,0.292-0.117
				c0.062-0.076,0.093-0.201,0.093-0.373v-2.807c0-0.186-0.035-0.324-0.112-0.418C88.172,36.516,88.06,36.473,87.911,36.473z"/>
			<polygon fill="#DA2129" points="80.884,30.467 82.26,30.467 82.26,27.102 83.862,22.35 82.464,22.35 81.611,25.598 
				81.525,25.598 80.63,22.35 79.244,22.35 80.884,27.252 			"/>
			<path fill="#DA2129" d="M85.73,30.619c0.555,0,0.99-0.146,1.309-0.438c0.316-0.293,0.475-0.693,0.475-1.205v-3.092
				c0-0.455-0.163-0.832-0.484-1.121c-0.322-0.289-0.739-0.434-1.244-0.434c-0.556,0-0.998,0.139-1.329,0.41
				c-0.328,0.275-0.493,0.645-0.493,1.109v3.104c0,0.508,0.16,0.912,0.481,1.215C84.765,30.467,85.193,30.619,85.73,30.619z
				 M85.223,25.805c0-0.131,0.045-0.236,0.139-0.318c0.094-0.08,0.215-0.121,0.363-0.121c0.163,0,0.293,0.041,0.393,0.121
				c0.099,0.082,0.148,0.188,0.148,0.318v3.262c0,0.16-0.047,0.285-0.146,0.379c-0.099,0.09-0.229,0.137-0.396,0.137
				c-0.16,0-0.287-0.043-0.373-0.137c-0.086-0.09-0.129-0.217-0.129-0.379V25.805z"/>
			<path fill="#DA2129" d="M89.359,30.557c0.23,0,0.465-0.066,0.709-0.193s0.481-0.314,0.704-0.557v0.66h1.224V24.48h-1.224v4.547
				c-0.112,0.127-0.239,0.236-0.376,0.32c-0.139,0.084-0.252,0.127-0.342,0.127c-0.115,0-0.199-0.031-0.25-0.096
				c-0.05-0.064-0.078-0.166-0.078-0.307V24.48h-1.222v5.006c0,0.355,0.071,0.621,0.216,0.799
				C88.864,30.465,89.074,30.557,89.359,30.557z"/>
		</g>
		<path fill="#DA2129" d="M56.361,26.164c-0.793,0.354-1.648,0.59-2.543,0.697c0.914-0.547,1.615-1.414,1.946-2.449
			c-0.854,0.508-1.801,0.877-2.812,1.074c-0.807-0.859-1.956-1.398-3.229-1.398c-2.442,0-4.425,1.982-4.425,4.426
			c0,0.35,0.038,0.684,0.115,1.008c-3.678-0.184-6.939-1.945-9.123-4.623c-0.381,0.652-0.599,1.416-0.599,2.225
			c0,1.537,0.78,2.891,1.968,3.686c-0.725-0.025-1.407-0.225-2.004-0.557c0,0.02,0,0.039,0,0.057c0,2.143,1.525,3.934,3.551,4.34
			c-0.371,0.102-0.764,0.156-1.166,0.156c-0.285,0-0.562-0.027-0.833-0.08c0.563,1.758,2.198,3.037,4.133,3.072
			c-1.513,1.189-3.421,1.896-5.495,1.896c-0.356,0-0.709-0.021-1.056-0.062c1.958,1.256,4.286,1.988,6.783,1.988
			c8.141,0,12.592-6.744,12.592-12.592c0-0.191-0.005-0.383-0.012-0.572C55.018,27.83,55.767,27.051,56.361,26.164z"/>
		<path fill="#DA2129" d="M132.912,22h-13.316c-2.314,0-4.195,1.881-4.195,4.195v4.43v8.889c0,2.312,1.881,4.193,4.195,4.193h13.316
			c2.312,0,4.195-1.881,4.195-4.193v-8.889v-4.43C137.107,23.881,135.225,22,132.912,22z M134.115,24.502l0.479-0.002v0.479v3.201
			l-3.666,0.012l-0.012-3.678L134.115,24.502z M123.156,30.625c0.693-0.961,1.822-1.592,3.098-1.592
			c1.273,0,2.402,0.631,3.096,1.592c0.453,0.629,0.723,1.396,0.723,2.229c0,2.107-1.713,3.82-3.818,3.82
			c-2.107,0-3.822-1.713-3.822-3.82C122.432,32.021,122.703,31.254,123.156,30.625z M134.99,39.514c0,1.146-0.932,2.078-2.078,2.078
			h-13.316c-1.148,0-2.082-0.932-2.082-2.078v-8.889h3.24c-0.279,0.689-0.436,1.439-0.436,2.229c0,3.273,2.662,5.936,5.936,5.936
			s5.936-2.662,5.936-5.936c0-0.789-0.16-1.539-0.438-2.229h3.238V39.514z"/>
		<path fill="#DA2129" d="M157.666,41.471c0.074,0,0.131-0.059,0.143-0.139l0.389-3.049l-0.389-3.115
			c-0.012-0.082-0.068-0.139-0.143-0.139s-0.135,0.059-0.145,0.139l-0.342,3.115l0.342,3.049
			C157.531,41.412,157.592,41.471,157.666,41.471z M156.521,40.178v0.002l0,0V40.178z M156.383,40.312
			c0.07,0,0.129-0.053,0.139-0.133l0.301-1.896l-0.301-1.926c-0.01-0.08-0.068-0.135-0.139-0.135c-0.072,0-0.131,0.057-0.139,0.135
			l-0.254,1.926l0.254,1.895C156.252,40.256,156.311,40.312,156.383,40.312z M159.203,34.59c-0.012-0.1-0.084-0.174-0.176-0.174
			c-0.09,0-0.164,0.074-0.174,0.174l-0.324,3.695l0.324,3.562c0.01,0.098,0.084,0.168,0.174,0.168c0.092,0,0.164-0.07,0.176-0.168
			l0.365-3.562L159.203,34.59z M160.402,42.158c0.105,0,0.193-0.086,0.203-0.201l0,0l0.348-3.672l-0.348-3.797
			c-0.01-0.115-0.098-0.201-0.203-0.201c-0.107,0-0.193,0.086-0.203,0.201l-0.307,3.797l0.307,3.672
			C160.209,42.072,160.295,42.158,160.402,42.158z M161.789,42.219c0.121,0,0.223-0.098,0.232-0.229l0,0l0.328-3.705l-0.328-3.525
			c-0.01-0.127-0.111-0.229-0.232-0.229c-0.127,0-0.229,0.102-0.234,0.232l-0.289,3.521l0.289,3.705
			C161.561,42.121,161.662,42.219,161.789,42.219z M163.754,38.287l-0.309-5.73c-0.008-0.148-0.121-0.262-0.262-0.262
			s-0.256,0.113-0.262,0.262l-0.271,5.73l0.271,3.703c0.006,0.146,0.121,0.26,0.262,0.26s0.254-0.113,0.262-0.26l0,0L163.754,38.287
			z M164.59,42.258c0.158,0,0.285-0.127,0.293-0.291v0.004l0.287-3.684l-0.287-7.041c-0.008-0.164-0.135-0.289-0.293-0.289
			c-0.156,0-0.285,0.125-0.293,0.289l-0.252,7.041l0.252,3.682C164.305,42.131,164.434,42.258,164.59,42.258z M166.01,30.338
			c-0.174,0-0.316,0.141-0.32,0.32l-0.238,7.631l0.238,3.643c0.004,0.178,0.146,0.316,0.32,0.316c0.172,0,0.314-0.139,0.32-0.318
			v0.002l0.27-3.643l-0.27-7.631C166.324,30.479,166.182,30.338,166.01,30.338z M167.439,42.258c0.191,0,0.344-0.154,0.352-0.35
			v0.002l0.246-3.621l-0.246-7.887c-0.008-0.197-0.16-0.348-0.352-0.348s-0.346,0.15-0.352,0.348l-0.219,7.887l0.219,3.621
			C167.094,42.104,167.248,42.258,167.439,42.258z M168.881,42.254c0.209,0,0.375-0.168,0.381-0.381v0.004l0.225-3.588l-0.225-7.688
			c-0.006-0.211-0.172-0.377-0.381-0.377s-0.377,0.166-0.381,0.377l-0.201,7.688l0.201,3.586
			C168.504,42.086,168.672,42.254,168.881,42.254z M170.949,38.289l-0.205-7.406c-0.006-0.229-0.188-0.408-0.412-0.408
			s-0.404,0.18-0.41,0.408l-0.184,7.406l0.184,3.564c0.006,0.227,0.186,0.406,0.41,0.406s0.406-0.18,0.412-0.41v0.004
			L170.949,38.289z M171.795,42.266c0.238,0,0.438-0.195,0.439-0.438v0.002l0.188-3.541l-0.188-8.812
			c-0.002-0.24-0.201-0.436-0.439-0.436s-0.436,0.195-0.439,0.436l-0.166,8.812l0.166,3.541
			C171.359,42.07,171.557,42.266,171.795,42.266z M173.252,28.211c-0.256,0-0.467,0.211-0.469,0.471l-0.193,9.609l0.193,3.488
			c0.002,0.256,0.213,0.465,0.469,0.465c0.258,0,0.467-0.209,0.471-0.467v0.004l0.211-3.49l-0.211-9.611
			C173.719,28.422,173.51,28.211,173.252,28.211z M174.586,42.27c0.01,0.002,11.75,0.008,11.826,0.008
			c2.355,0,4.268-1.912,4.268-4.268c0-2.357-1.912-4.268-4.268-4.268c-0.584,0-1.143,0.119-1.65,0.33
			c-0.34-3.844-3.562-6.861-7.496-6.861c-0.963,0-1.9,0.191-2.73,0.512c-0.322,0.125-0.406,0.252-0.41,0.5v13.541
			C174.129,42.027,174.33,42.244,174.586,42.27z"/>
	</g>
</g>
</svg>
