<?xml version="1.0" encoding="utf-8"?>
<!-- Generator: Adobe Illustrator 16.0.0, SVG Export Plug-In . SVG Version: 6.00 Build 0)  -->
<!DOCTYPE svg PUBLIC "-//W3C//DTD SVG 1.1//EN" "http://www.w3.org/Graphics/SVG/1.1/DTD/svg11.dtd">
<svg version="1.1" id="Layer_1" xmlns="http://www.w3.org/2000/svg" xmlns:xlink="http://www.w3.org/1999/xlink" x="0px" y="0px"
	 width="140px" height="70px" viewBox="0 0 140 70" enable-background="new 0 0 140 70" xml:space="preserve">
<g>
	<path fill="#818181" d="M64.316,28.428c-0.207-1.674-0.348-3.349-0.348-4.988c-1.08-0.14-4.047-0.524-5.023-0.524
		c-4.498,0-7.707,2.686-7.707,7.221c0,8.406,10.254,6.487,10.254,12.662c0,2.476-1.919,3.975-4.289,3.975
		c-3.314,0-4.99-2.581-5.407-5.544l-0.977,0.208c0.175,1.779,0.419,3.524,0.593,5.303c1.71,0.872,3.592,1.569,5.547,1.569
		c4.463,0,8.439-2.511,8.439-7.323c0-8.373-10.463-6.628-10.463-12.419c0-2.756,1.534-4.396,4.289-4.396
		c2.406,0,3.872,2.162,4.117,4.43L64.316,28.428z"/>
	<path fill="#818181" d="M71.738,36.067h12.66v8.684c0,1.884-1.463,1.989-2.72,1.989h-0.663v1.046c1.535,0,3.77-0.138,5.65-0.138
		c1.78,0,3.873,0.138,5.27,0.138V46.74h-0.488c-1.256,0-2.584-0.176-2.584-1.989V26.474c0-1.812,1.328-1.987,2.584-1.987h0.488
		V23.44c-1.396,0-3.489,0.138-5.27,0.138c-1.881,0-4.115-0.138-5.65-0.138v1.046h0.663c1.257,0,2.72,0.104,2.72,1.987v7.639h-12.66
		v-7.639c0-1.884,1.466-1.987,2.722-1.987h0.663V23.44c-1.535,0-3.768,0.138-5.65,0.138c-1.78,0-3.873-0.138-5.269-0.138v1.046
		h0.487c1.258,0,2.581,0.175,2.581,1.987v18.277c0,1.813-1.323,1.989-2.581,1.989h-0.487v1.046c1.396,0,3.488-0.138,5.269-0.138
		c1.883,0,4.115,0.138,5.65,0.138V46.74H74.46c-1.256,0-2.722-0.105-2.722-1.989V36.067z"/>
	<path fill="#818181" d="M98.154,39.17h7.916l1.363,4.047c0.383,1.116,0.695,2.058,0.695,2.512c0,0.87-1.359,1.012-2.162,1.012
		h-0.385v1.046c1.779-0.069,3.523-0.138,5.232-0.138c1.674,0,3.244,0.068,4.813,0.138V46.74h-0.209c-1.151,0-1.884-0.42-2.3-1.396
		c-0.457-1.046-0.874-2.338-1.291-3.559l-6.42-18.242c-0.104-0.278-0.21-0.593-0.314-0.871c-0.068-0.105-0.139-0.105-0.242-0.105
		c-0.105,0-0.176,0.035-0.279,0.069c-0.662,0.418-2.059,1.117-3.176,1.501c-0.209,1.29-0.838,3.034-1.29,4.324l-5.581,16.011
		c-0.523,1.465-1.672,2.268-3.033,2.268h-0.211v1.046c1.257-0.069,2.514-0.138,3.766-0.138c1.397,0,2.829,0.068,4.223,0.138V46.74
		h-0.385c-1.15,0-2.615-0.176-2.615-1.221c0-0.628,0.418-1.535,0.768-2.721L98.154,39.17z M105.338,37.217h-6.521l3.244-9.87h0.069
		L105.338,37.217z"/>
	<path fill="#818181" d="M31.744,31.316c1.283-1.771,3.365-2.922,5.719-2.922c3.897,0,7.057,3.159,7.057,7.058
		c0,3.897-3.159,7.056-7.057,7.056c-2.883,0-5.366-1.731-6.459-4.209c0.879,1.008,2.174,1.646,3.619,1.646
		c2.645,0,4.793-2.146,4.793-4.793c0-2.648-2.148-4.793-4.793-4.793C33.543,30.358,32.545,30.715,31.744,31.316"/>
	<path fill="#818181" d="M24.625,35.424c0-5.513,4.468-9.981,9.98-9.981c3.59,0,6.737,1.895,8.495,4.738
		c-1.407-1.505-3.411-2.446-5.638-2.446c-4.26,0-7.715,3.455-7.715,7.717c0,4.263,3.455,7.715,7.715,7.715
		c2.17,0,4.133-0.896,5.534-2.338c-1.778,2.753-4.872,4.573-8.392,4.573C29.093,45.402,24.625,40.936,24.625,35.424"/>
	<path fill="#818181" d="M25.363,30.108c2.033-4.576,6.617-7.766,11.946-7.766c7.216,0,13.067,5.85,13.067,13.065
		S44.525,48.476,37.31,48.476c-5.28,0-9.828-3.131-11.89-7.638c1.854,3.14,5.275,5.245,9.186,5.245
		c5.888,0,10.66-4.771,10.66-10.659c0-5.889-4.772-10.662-10.66-10.662C30.654,24.763,27.205,26.914,25.363,30.108"/>
	<path fill="#818181" d="M108.674,24.711c0-1.338,1.086-2.425,2.438-2.425c1.344,0,2.423,1.087,2.423,2.425
		c0,1.351-1.079,2.437-2.423,2.437C109.76,27.148,108.674,26.062,108.674,24.711 M113.109,24.711c0-1.099-0.893-1.997-1.997-1.997
		c-1.112,0-2.012,0.898-2.012,1.997c0,1.112,0.899,2.01,2.012,2.01C112.217,26.721,113.109,25.823,113.109,24.711 M110.594,24.871
		v1.236h-0.447v-2.858h0.926c0.523,0,1.067,0.142,1.067,0.789c0,0.33-0.2,0.587-0.583,0.665v0.013
		c0.396,0.079,0.439,0.252,0.486,0.562c0.037,0.271,0.071,0.569,0.166,0.829h-0.568c-0.033-0.162-0.076-0.344-0.096-0.512
		c-0.033-0.246-0.033-0.471-0.162-0.607c-0.109-0.117-0.26-0.102-0.413-0.117H110.594z M111.065,24.425
		c0.421-0.012,0.517-0.188,0.517-0.405c0-0.214-0.096-0.323-0.451-0.323h-0.537v0.729H111.065z"/>
</g>
</svg>
